#N canvas 46 91 1193 592 10;
#X declare -path cg-pd-library-local/externals;
#X declare -path cg-pd-library-local/metronome;
#X declare -path /cg-pd-library-local/sequencer;
#X declare -path /cg-pd-library-local/sampling;
#X obj 37 146 throw~ outL;
#X obj 113 146 throw~ outR;
#N canvas 13 50 450 300 cg-pd-library-local 0;
#X obj 502 35 r cgSc-1-slots;
#X obj 55 126 declare -path cg-pd-library-local/externals;
#X obj 55 154 declare -path cg-pd-library-local/metronome;
#X obj 55 98 declare -path /cg-pd-library-local/sequencer;
#X obj 55 70 declare -path /cg-pd-library-local/sampling;
#X restore 590 50 pd cg-pd-library-local;
#X obj 520 11 loadbang;
#X obj 446 246 r~ inL;
#X obj 504 246 r~ inR;
#X msg 520 330 1;
#X obj 520 303 del 100;
#X text 29 41 Audio Thru;
#X text 608 354 arg1 width;
#X text 607 374 arg2 height;
#X text 607 393 arg 3: startx;
#X text 607 412 arg 4: starty;
#X obj 38 73 r~ inL;
#X obj 112 73 r~ inR;
#X obj 446 314 *~ 1;
#X obj 447 355 cg-osc-scope 100 40 12 25;
#X msg 262 72 \; screenLine2 Audio In to Out \; screenLine4 Knobs1-4
+ Keys \; screenLine5 have no function \;;
#X connect 3 0 17 0;
#X connect 3 0 7 0;
#X connect 4 0 15 0;
#X connect 5 0 15 0;
#X connect 7 0 6 0;
#X connect 13 0 0 0;
#X connect 13 0 1 0;
#X connect 14 0 1 0;
#X connect 14 0 0 0;
#X connect 15 0 16 0;
