#N canvas 124 50 1046 618 10;
#X obj 672 -21 r knob1;
#X obj 672 1 * 1000;
#X obj 677 30 + 5;
#X obj 528 9 * 1000;
#X obj 533 38 + 5;
#X obj 528 -13 r knob2;
#X obj 660 205 r knob3;
#X obj 659 236 * 4;
#X obj 665 143 s screenLine1;
#X msg 672 117 1: Attack \$1 ms;
#X obj 675 77 i;
#X obj 531 60 i;
#X msg 533 86 2: Release \$1 ms;
#X obj 526 112 s screenLine2;
#X msg 624 296 3: Tuning \$1 x;
#X obj 623 322 s screenLine3;
#X obj 876 92 r knob4;
#X obj 874 169 * 10;
#X obj 874 191 + 0.1;
#X obj 873 141 abs;
#X obj 873 119 - 1;
#X msg 832 290 4: Glide \$1 %;
#X obj 842 227 * 100;
#X obj 842 251 i;
#X obj 831 316 s screenLine4;
#X obj 902 235 s glide;
#X obj 722 54 s attack;
#X obj 588 64 s decay;
#X obj 655 263 s tune;
#N canvas 4 50 702 529 synth-voice 0;
#X obj 156 56 unpack;
#X floatatom 168 96 5 0 0 0 - - -, f 5;
#X floatatom 343 152 5 0 0 0 - - -, f 5;
#X obj 167 297 osc~;
#X obj 163 134 mtof;
#X floatatom 164 159 5 0 0 0 - - -, f 5;
#X obj 174 336 *~;
#X obj 341 181 / 127;
#X obj 260 251 line~;
#X obj 269 109 sel 0;
#X obj 348 212 pack 0 0;
#X obj 245 188 pack 0 0;
#X obj 152 201 sig~;
#X obj 156 237 *~;
#X obj 244 50 sig~;
#X obj 244 72 lop~ 10;
#X obj 162 266 lop~;
#X obj 197 233 r glide;
#X obj 416 155 r attack;
#X obj 283 145 r decay;
#X obj 245 22 r tune;
#X obj 169 403 outlet~;
#X obj 125 3 inlet;
#X connect 0 0 1 0;
#X connect 0 1 9 0;
#X connect 1 0 4 0;
#X connect 2 0 7 0;
#X connect 3 0 6 0;
#X connect 4 0 5 0;
#X connect 5 0 12 0;
#X connect 6 0 21 0;
#X connect 7 0 10 0;
#X connect 8 0 6 1;
#X connect 9 0 11 0;
#X connect 9 1 2 0;
#X connect 10 0 8 0;
#X connect 11 0 8 0;
#X connect 12 0 13 0;
#X connect 13 0 16 0;
#X connect 14 0 15 0;
#X connect 15 0 13 1;
#X connect 16 0 3 0;
#X connect 17 0 16 1;
#X connect 18 0 10 1;
#X connect 19 0 11 1;
#X connect 20 0 14 0;
#X connect 22 0 0 0;
#X restore 123 235 pd synth-voice;
#X obj 112 35 r notes;
#X obj 106 431 throw~ outL;
#X obj 112 57 poly 6 1;
#X obj 107 93 pack 0 0 0;
#X obj 105 119 route 1 2 3 4 5 6;
#N canvas 4 50 702 529 synth-voice 0;
#X obj 156 56 unpack;
#X floatatom 168 96 5 0 0 0 - - -, f 5;
#X floatatom 343 152 5 0 0 0 - - -, f 5;
#X obj 167 297 osc~;
#X obj 163 134 mtof;
#X floatatom 164 159 5 0 0 0 - - -, f 5;
#X obj 174 336 *~;
#X obj 341 181 / 127;
#X obj 260 251 line~;
#X obj 269 109 sel 0;
#X obj 348 212 pack 0 0;
#X obj 245 188 pack 0 0;
#X obj 152 201 sig~;
#X obj 156 237 *~;
#X obj 244 50 sig~;
#X obj 244 72 lop~ 10;
#X obj 162 266 lop~;
#X obj 197 233 r glide;
#X obj 416 155 r attack;
#X obj 283 145 r decay;
#X obj 245 22 r tune;
#X obj 169 403 outlet~;
#X obj 125 3 inlet;
#X connect 0 0 1 0;
#X connect 0 1 9 0;
#X connect 1 0 4 0;
#X connect 2 0 7 0;
#X connect 3 0 6 0;
#X connect 4 0 5 0;
#X connect 5 0 12 0;
#X connect 6 0 21 0;
#X connect 7 0 10 0;
#X connect 8 0 6 1;
#X connect 9 0 11 0;
#X connect 9 1 2 0;
#X connect 10 0 8 0;
#X connect 11 0 8 0;
#X connect 12 0 13 0;
#X connect 13 0 16 0;
#X connect 14 0 15 0;
#X connect 15 0 13 1;
#X connect 16 0 3 0;
#X connect 17 0 16 1;
#X connect 18 0 10 1;
#X connect 19 0 11 1;
#X connect 20 0 14 0;
#X connect 22 0 0 0;
#X restore 147 259 pd synth-voice;
#N canvas 4 50 702 529 synth-voice 0;
#X obj 156 56 unpack;
#X floatatom 168 96 5 0 0 0 - - -, f 5;
#X floatatom 343 152 5 0 0 0 - - -, f 5;
#X obj 167 297 osc~;
#X obj 163 134 mtof;
#X floatatom 164 159 5 0 0 0 - - -, f 5;
#X obj 174 336 *~;
#X obj 341 181 / 127;
#X obj 260 251 line~;
#X obj 269 109 sel 0;
#X obj 348 212 pack 0 0;
#X obj 245 188 pack 0 0;
#X obj 152 201 sig~;
#X obj 156 237 *~;
#X obj 244 50 sig~;
#X obj 244 72 lop~ 10;
#X obj 162 266 lop~;
#X obj 197 233 r glide;
#X obj 416 155 r attack;
#X obj 283 145 r decay;
#X obj 245 22 r tune;
#X obj 169 403 outlet~;
#X obj 125 3 inlet;
#X connect 0 0 1 0;
#X connect 0 1 9 0;
#X connect 1 0 4 0;
#X connect 2 0 7 0;
#X connect 3 0 6 0;
#X connect 4 0 5 0;
#X connect 5 0 12 0;
#X connect 6 0 21 0;
#X connect 7 0 10 0;
#X connect 8 0 6 1;
#X connect 9 0 11 0;
#X connect 9 1 2 0;
#X connect 10 0 8 0;
#X connect 11 0 8 0;
#X connect 12 0 13 0;
#X connect 13 0 16 0;
#X connect 14 0 15 0;
#X connect 15 0 13 1;
#X connect 16 0 3 0;
#X connect 17 0 16 1;
#X connect 18 0 10 1;
#X connect 19 0 11 1;
#X connect 20 0 14 0;
#X connect 22 0 0 0;
#X restore 179 290 pd synth-voice;
#N canvas 4 50 702 529 synth-voice 0;
#X obj 156 56 unpack;
#X floatatom 168 96 5 0 0 0 - - -, f 5;
#X floatatom 343 152 5 0 0 0 - - -, f 5;
#X obj 167 297 osc~;
#X obj 163 134 mtof;
#X floatatom 164 159 5 0 0 0 - - -, f 5;
#X obj 174 336 *~;
#X obj 341 181 / 127;
#X obj 260 251 line~;
#X obj 269 109 sel 0;
#X obj 348 212 pack 0 0;
#X obj 245 188 pack 0 0;
#X obj 152 201 sig~;
#X obj 156 237 *~;
#X obj 244 50 sig~;
#X obj 244 72 lop~ 10;
#X obj 162 266 lop~;
#X obj 197 233 r glide;
#X obj 416 155 r attack;
#X obj 283 145 r decay;
#X obj 245 22 r tune;
#X obj 169 403 outlet~;
#X obj 125 3 inlet;
#X connect 0 0 1 0;
#X connect 0 1 9 0;
#X connect 1 0 4 0;
#X connect 2 0 7 0;
#X connect 3 0 6 0;
#X connect 4 0 5 0;
#X connect 5 0 12 0;
#X connect 6 0 21 0;
#X connect 7 0 10 0;
#X connect 8 0 6 1;
#X connect 9 0 11 0;
#X connect 9 1 2 0;
#X connect 10 0 8 0;
#X connect 11 0 8 0;
#X connect 12 0 13 0;
#X connect 13 0 16 0;
#X connect 14 0 15 0;
#X connect 15 0 13 1;
#X connect 16 0 3 0;
#X connect 17 0 16 1;
#X connect 18 0 10 1;
#X connect 19 0 11 1;
#X connect 20 0 14 0;
#X connect 22 0 0 0;
#X restore 248 229 pd synth-voice;
#N canvas 4 50 702 529 synth-voice 0;
#X obj 156 56 unpack;
#X floatatom 168 96 5 0 0 0 - - -, f 5;
#X floatatom 343 152 5 0 0 0 - - -, f 5;
#X obj 167 297 osc~;
#X obj 163 134 mtof;
#X floatatom 164 159 5 0 0 0 - - -, f 5;
#X obj 174 336 *~;
#X obj 341 181 / 127;
#X obj 260 251 line~;
#X obj 269 109 sel 0;
#X obj 348 212 pack 0 0;
#X obj 245 188 pack 0 0;
#X obj 152 201 sig~;
#X obj 156 237 *~;
#X obj 244 50 sig~;
#X obj 244 72 lop~ 10;
#X obj 162 266 lop~;
#X obj 197 233 r glide;
#X obj 416 155 r attack;
#X obj 283 145 r decay;
#X obj 245 22 r tune;
#X obj 169 403 outlet~;
#X obj 125 3 inlet;
#X connect 0 0 1 0;
#X connect 0 1 9 0;
#X connect 1 0 4 0;
#X connect 2 0 7 0;
#X connect 3 0 6 0;
#X connect 4 0 5 0;
#X connect 5 0 12 0;
#X connect 6 0 21 0;
#X connect 7 0 10 0;
#X connect 8 0 6 1;
#X connect 9 0 11 0;
#X connect 9 1 2 0;
#X connect 10 0 8 0;
#X connect 11 0 8 0;
#X connect 12 0 13 0;
#X connect 13 0 16 0;
#X connect 14 0 15 0;
#X connect 15 0 13 1;
#X connect 16 0 3 0;
#X connect 17 0 16 1;
#X connect 18 0 10 1;
#X connect 19 0 11 1;
#X connect 20 0 14 0;
#X connect 22 0 0 0;
#X restore 277 252 pd synth-voice;
#N canvas 4 50 702 529 synth-voice 0;
#X obj 156 56 unpack;
#X floatatom 168 96 5 0 0 0 - - -, f 5;
#X floatatom 343 152 5 0 0 0 - - -, f 5;
#X obj 167 297 osc~;
#X obj 163 134 mtof;
#X floatatom 164 159 5 0 0 0 - - -, f 5;
#X obj 174 336 *~;
#X obj 341 181 / 127;
#X obj 260 251 line~;
#X obj 269 109 sel 0;
#X obj 348 212 pack 0 0;
#X obj 245 188 pack 0 0;
#X obj 152 201 sig~;
#X obj 156 237 *~;
#X obj 244 50 sig~;
#X obj 244 72 lop~ 10;
#X obj 162 266 lop~;
#X obj 197 233 r glide;
#X obj 416 155 r attack;
#X obj 283 145 r decay;
#X obj 245 22 r tune;
#X obj 169 403 outlet~;
#X obj 125 3 inlet;
#X connect 0 0 1 0;
#X connect 0 1 9 0;
#X connect 1 0 4 0;
#X connect 2 0 7 0;
#X connect 3 0 6 0;
#X connect 4 0 5 0;
#X connect 5 0 12 0;
#X connect 6 0 21 0;
#X connect 7 0 10 0;
#X connect 8 0 6 1;
#X connect 9 0 11 0;
#X connect 9 1 2 0;
#X connect 10 0 8 0;
#X connect 11 0 8 0;
#X connect 12 0 13 0;
#X connect 13 0 16 0;
#X connect 14 0 15 0;
#X connect 15 0 13 1;
#X connect 16 0 3 0;
#X connect 17 0 16 1;
#X connect 18 0 10 1;
#X connect 19 0 11 1;
#X connect 20 0 14 0;
#X connect 22 0 0 0;
#X restore 320 283 pd synth-voice;
#X obj 144 367 *~ 0.2;
#X connect 0 0 1 0;
#X connect 1 0 2 0;
#X connect 2 0 10 0;
#X connect 2 0 26 0;
#X connect 3 0 4 0;
#X connect 4 0 11 0;
#X connect 4 0 27 0;
#X connect 5 0 3 0;
#X connect 6 0 7 0;
#X connect 7 0 14 0;
#X connect 7 0 28 0;
#X connect 9 0 8 0;
#X connect 10 0 9 0;
#X connect 11 0 12 0;
#X connect 12 0 13 0;
#X connect 14 0 15 0;
#X connect 16 0 20 0;
#X connect 16 0 22 0;
#X connect 17 0 18 0;
#X connect 18 0 25 0;
#X connect 19 0 17 0;
#X connect 20 0 19 0;
#X connect 21 0 24 0;
#X connect 22 0 23 0;
#X connect 23 0 21 0;
#X connect 29 0 40 0;
#X connect 30 0 32 0;
#X connect 32 0 33 0;
#X connect 32 1 33 1;
#X connect 32 2 33 2;
#X connect 33 0 34 0;
#X connect 34 0 29 0;
#X connect 34 1 35 0;
#X connect 34 2 36 0;
#X connect 34 3 37 0;
#X connect 34 4 38 0;
#X connect 34 5 39 0;
#X connect 35 0 40 0;
#X connect 36 0 40 0;
#X connect 37 0 40 0;
#X connect 38 0 40 0;
#X connect 39 0 40 0;
#X connect 40 0 31 0;
