#N canvas 130 63 952 541 10;
#X obj 168 52 r notes;
#X obj 168 74 unpack;
#X floatatom 168 96 5 0 0 0 - - -, f 5;
#X floatatom 343 152 5 0 0 0 - - -, f 5;
#X obj 158 274 osc~;
#X obj 163 134 mtof;
#X floatatom 164 159 5 0 0 0 - - -, f 5;
#X obj 144 378 throw~ outL;
#X obj 239 379 throw~ outR;
#X obj 174 336 *~;
#X obj 341 181 / 127;
#X obj 260 251 line~;
#X obj 269 109 sel 0;
#X obj 672 -21 r knob1;
#X obj 672 1 * 1000;
#X obj 348 212 pack 0 0;
#X obj 677 30 + 5;
#X obj 245 188 pack 0 0;
#X obj 527 1 * 1000;
#X obj 532 30 + 5;
#X obj 527 -21 r knob2;
#X obj 257 -30 r knob3;
#X obj 152 201 sig~;
#X obj 156 237 *~;
#X obj 256 1 * 4;
#X obj 252 26 sig~;
#X obj 252 48 lop~ 10;
#X obj 665 143 s screenLine1;
#X msg 672 117 1: Attack \$1 ms;
#X obj 675 77 i;
#X obj 530 52 i;
#X msg 532 78 2: Release \$1 ms;
#X obj 525 104 s screenLine2;
#X msg 336 38 3: Tuning \$1 x;
#X obj 335 64 s screenLine3;
#X obj 583 222 loadbang;
#X msg 583 244 4: x;
#X obj 583 266 s screenLine4;
#X connect 0 0 1 0;
#X connect 1 0 2 0;
#X connect 1 1 12 0;
#X connect 2 0 5 0;
#X connect 3 0 10 0;
#X connect 4 0 9 0;
#X connect 5 0 6 0;
#X connect 6 0 22 0;
#X connect 9 0 7 0;
#X connect 9 0 8 0;
#X connect 10 0 15 0;
#X connect 11 0 9 1;
#X connect 12 0 17 0;
#X connect 12 1 3 0;
#X connect 13 0 14 0;
#X connect 14 0 16 0;
#X connect 15 0 11 0;
#X connect 16 0 15 1;
#X connect 16 0 29 0;
#X connect 17 0 11 0;
#X connect 18 0 19 0;
#X connect 19 0 17 1;
#X connect 19 0 30 0;
#X connect 20 0 18 0;
#X connect 21 0 24 0;
#X connect 22 0 23 0;
#X connect 23 0 4 0;
#X connect 24 0 25 0;
#X connect 24 0 33 0;
#X connect 25 0 26 0;
#X connect 26 0 23 1;
#X connect 28 0 27 0;
#X connect 29 0 28 0;
#X connect 30 0 31 0;
#X connect 31 0 32 0;
#X connect 33 0 34 0;
#X connect 35 0 36 0;
#X connect 36 0 37 0;
