#N canvas 157 59 889 473 10;
#X obj 59 25 r knob1;
#X floatatom 59 47 5 0 0 0 - - -;
#X obj 59 174 osc~;
#X obj 59 67 * 1000;
#X floatatom 59 89 5 0 0 0 - - -;
#X obj 44 207 throw~ outL;
#X obj 131 209 throw~ outR;
#X obj 59 112 sig~;
#X obj 59 138 lop~ 10;
#X floatatom 270 47 5 0 0 0 - - -;
#X obj 270 174 osc~;
#X obj 270 67 * 1000;
#X floatatom 270 89 5 0 0 0 - - -;
#X obj 255 207 throw~ outL;
#X obj 336 207 throw~ outR;
#X obj 270 112 sig~;
#X obj 270 25 r knob2;
#X floatatom 474 47 5 0 0 0 - - -;
#X obj 474 174 osc~;
#X obj 474 67 * 1000;
#X floatatom 474 89 5 0 0 0 - - -;
#X obj 459 207 throw~ outL;
#X obj 542 207 throw~ outR;
#X obj 474 112 sig~;
#X obj 474 138 lop~ 10;
#X floatatom 673 47 5 0 0 0 - - -;
#X obj 673 174 osc~;
#X obj 673 67 * 1000;
#X floatatom 673 89 5 0 0 0 - - -;
#X obj 658 207 throw~ outL;
#X obj 741 207 throw~ outR;
#X obj 673 112 sig~;
#X obj 673 138 lop~ 10;
#X obj 474 25 r knob3;
#X obj 673 25 r knob4;
#X connect 0 0 1 0;
#X connect 1 0 3 0;
#X connect 2 0 5 0;
#X connect 2 0 6 0;
#X connect 3 0 4 0;
#X connect 4 0 7 0;
#X connect 7 0 8 0;
#X connect 8 0 2 0;
#X connect 9 0 11 0;
#X connect 10 0 13 0;
#X connect 10 0 14 0;
#X connect 11 0 12 0;
#X connect 12 0 15 0;
#X connect 15 0 10 0;
#X connect 16 0 9 0;
#X connect 17 0 19 0;
#X connect 18 0 21 0;
#X connect 18 0 22 0;
#X connect 19 0 20 0;
#X connect 20 0 23 0;
#X connect 23 0 24 0;
#X connect 24 0 18 0;
#X connect 25 0 27 0;
#X connect 26 0 29 0;
#X connect 26 0 30 0;
#X connect 27 0 28 0;
#X connect 28 0 31 0;
#X connect 31 0 32 0;
#X connect 32 0 26 0;
#X connect 33 0 17 0;
#X connect 34 0 25 0;
