#N canvas 119 50 935 648 10;
#X declare -path patchmenu;
#X declare -path cg-pd-library-local/sampling;
#X declare -path cg-pd-library-local/sequencer;
#X declare -path cg-pd-library-local/externals;
#X declare -path cg-pd-library-local/metronome;
#X obj 408 161 s enableSubMenu;
#X obj 381 60 loadbang;
#X obj 381 136 t b b;
#X obj 381 102 versioncheck 3;
#X obj 540 68 declare -path patchmenu;
#X obj 381 222 patchmenu 2;
#X msg 381 281 \; screenLine1 1) MIDI IN \; screenLine2 2) MIDI OUT
\; screenLine3 <-- HOME \;;
#N canvas 4 50 1358 682 input-monitor 0;
#X text 34 730 Line \, start x \, y \, end x \, y color;
#X text 34 713 Print Line \, x \, y \, size \, color \, stuff to print
;
#X msg 9 458 /oled/gFlip 3;
#X obj 351 749 s oscOut;
#X msg 270 75 /oled/gClear 3 1;
#X msg 67 374 /oled/gPrintln 3 0 31 8 1 Vel;
#X msg 125 289 /oled/gPrintln 3 53 31 8 1 #;
#X obj 488 55 notein, f 14;
#X msg 528 188 /oled/gPrintln 3 25 31 8 1 \$1;
#X obj 488 222 t a b;
#X msg 515 240 /oled/gFillArea 3 24 20 20 9 0;
#X obj 528 146 t a b;
#X obj 569 78 t a b;
#X msg 555 167 /oled/gFillArea 3 24 30 20 9 0;
#X text 609 78 Note Channel;
#X text 567 147 Note Velocity;
#X text 527 222 Note Number;
#X obj 824 222 t a b;
#X obj 864 146 t a b;
#X obj 905 78 t a b;
#X obj 824 55 ctlin, f 14;
#X text 903 147 CC Number;
#X text 863 222 CC Val;
#X msg 891 167 /oled/gFillArea 3 73 30 20 9 0;
#X msg 932 99 /oled/gFillArea 3 73 20 20 9 0;
#X text 464 18 Display Incoming MIDI Notes & CCs;
#X text 578 55 Incoming Notes;
#X text 943 78 CC Channel;
#X text 916 55 Incoming CCs, f 13;
#X obj 8 8 r page-ready;
#X obj 8 29 sel 1;
#X obj 1224 32 notein;
#X obj 1327 32 ctlin;
#X obj 1327 53 t b;
#N canvas 4 50 640 615 timer 0;
#X obj 92 11 inlet;
#X obj 155 194 timer;
#X msg 455 52 stop;
#X obj 362 107 t b b;
#X obj 155 215 / 1000;
#X obj 155 236 * 100;
#X obj 155 257 i;
#X obj 155 278 * 0.01;
#X msg 362 299 midi waiting...;
#X obj 362 541 s screenLine5;
#X obj 362 494 list append;
#X obj 362 401 t b a, f 11;
#X msg 362 472 1;
#X obj 362 515 route 1;
#X obj 26 303 r page-ready;
#X obj 26 324 sel 1;
#X obj 26 345 del 1;
#X obj 92 32 t b b b b b, f 61;
#X obj 182 116 metro 1000;
#X msg 155 299 Last MIDI: \$1sec ago;
#X msg 272 74 stop;
#X obj 364 86 del 10000;
#X text 433 86 timeout after 5 minutes;
#X obj 539 219 r page-ready;
#X obj 539 240 sel 1;
#X obj 362 365 spigot 0, f 30;
#X obj 539 261 f 1;
#X obj 568 261 t b;
#X obj 568 282 f 0;
#X obj 539 310 f;
#X obj 381 220 r page-ready;
#X obj 381 241 sel 1;
#X obj 381 262 del 100;
#X connect 0 0 17 0;
#X connect 1 0 4 0;
#X connect 2 0 21 0;
#X connect 3 0 8 0;
#X connect 3 1 1 0;
#X connect 4 0 5 0;
#X connect 5 0 6 0;
#X connect 6 0 7 0;
#X connect 7 0 19 0;
#X connect 8 0 25 0;
#X connect 10 0 13 0;
#X connect 11 0 12 0;
#X connect 11 1 10 1;
#X connect 12 0 10 0;
#X connect 13 0 9 0;
#X connect 14 0 15 0;
#X connect 15 0 16 0;
#X connect 17 1 18 0;
#X connect 17 2 1 0;
#X connect 17 3 21 0;
#X connect 17 4 2 0;
#X connect 18 0 1 1;
#X connect 19 0 25 0;
#X connect 20 0 18 0;
#X connect 21 0 3 0;
#X connect 21 0 20 0;
#X connect 23 0 24 0;
#X connect 24 0 26 0;
#X connect 24 1 27 0;
#X connect 25 0 11 0;
#X connect 26 0 29 0;
#X connect 27 0 28 0;
#X connect 28 0 29 0;
#X connect 29 0 25 1;
#X connect 30 0 31 0;
#X connect 31 0 32 0;
#X connect 32 0 8 0;
#X restore 1224 207 pd timer;
#X obj 1224 143 t b;
#X obj 1401 58 r page-ready;
#X obj 1401 79 sel 1;
#X obj 1224 170 spigot 0, f 30;
#X obj 1401 100 f 1;
#X obj 1428 101 t b;
#X obj 1428 122 f 0;
#X obj 1401 149 f;
#X obj 525 436 spigot 0;
#X obj 618 299 r page-ready;
#X obj 618 320 sel 1;
#X obj 618 341 f 1;
#X obj 645 342 t b;
#X obj 645 363 f 0;
#X obj 618 390 t f f;
#X obj 600 471 spigot 0;
#X obj 1224 74 stripnote;
#X text 417 96 nr clk;
#X msg 38 416 /oled/gPrintln 3 4 9 8 1 Note In;
#X msg 96 331 /oled/gPrintln 3 60 9 8 1 CC In;
#X msg 52 395 /oled/gPrintln 3 0 20 8 1 #;
#X msg 110 310 /oled/gPrintln 3 53 20 8 1 Val;
#X msg 488 258 /oled/gPrintln 3 25 20 8 1 \$1;
#X text 369 182 bottom;
#X msg 241 118 /oled/gLine 3 50 8 50 51 1;
#X msg 139 268 /oled/gPrintln 3 53 42 8 1 Ch;
#X msg 81 352 /oled/gPrintln 3 0 42 8 1 Ch;
#X msg 569 119 /oled/gPrintln 3 25 42 8 1 \$1;
#X msg 596 99 /oled/gFillArea 3 24 42 20 9 0;
#X obj 9 48 t b b b b b b b b b b b b b b b b b b b, f 44;
#X msg 226 139 /oled/gLine 3 0 29 93 29 1;
#X msg 255 97 /oled/gLine 3 94 8 94 51 1;
#X msg 212 160 /oled/gLine 3 0 40 127 40 1;
#X msg 24 437 /oled/gInvertArea 3 0 8 94 10;
#X msg 197 180 /oled/gLine 3 0 51 127 51 1;
#X msg 153 246 /oled/gPrintln 3 110 11 8 1 C;
#X msg 169 223 /oled/gPrintln 3 110 20 8 1 L;
#X msg 184 202 /oled/gPrintln 3 110 30 8 1 K;
#N canvas 4 50 1152 571 incoming-midi-clock-transport 0;
#X obj 126 50 midirealtimein;
#X msg 126 371 /oled/gFlip 3;
#X obj 126 264 i 0;
#X obj 163 264 + 1;
#X obj 126 285 % 24;
#X obj 126 306 sel 0;
#X obj 126 327 t b b b;
#X text 164 287 flash every 24 clocks;
#X msg 183 223 0;
#X text 218 50 Incoming MIDI Clock;
#X obj 126 180 sel 248 250 251 252, f 39;
#X text 443 49 MIDI 248 = clock \; 250 = start \; 251 = continue. 252
= stop;
#X obj 183 203 t b b;
#X obj 423 530 s oscOut;
#X msg 321 235 start;
#X obj 384 272 symbol;
#X msg 405 235 stop;
#X msg 423 458 /oled/gFlip 3;
#X obj 357 49 r page-ready;
#X obj 357 70 sel 1;
#X obj 126 160 spigot 0, f 39;
#X obj 357 91 f 1;
#X obj 384 92 t b;
#X obj 384 113 f 0;
#X obj 357 140 f;
#X msg 366 235 cont;
#X msg 551 503 /oled/gPrintln 3 97 42 8 1 \$1;
#X msg 609 459 /oled/gFillArea 3 97 42 30 8 0;
#X msg 145 348 /oled/gInvertArea 3 105 9 15 29;
#X obj 469 169 del 100;
#X obj 384 293 t b b a b, f 20;
#X msg 570 325 stop;
#X obj 570 345 delay 2500;
#X msg 469 235 trnsp;
#X msg 589 481 /oled/gPrintln 3 97 42 8 1 - - -;
#X obj 570 368 t b b b;
#X obj 570 218 r page-ready;
#X obj 570 239 sel 1;
#X obj 570 260 del 1;
#X obj 152 428 s oscOut;
#X connect 0 0 20 0;
#X connect 1 0 39 0;
#X connect 2 0 3 0;
#X connect 2 0 4 0;
#X connect 3 0 2 1;
#X connect 4 0 5 0;
#X connect 5 0 6 0;
#X connect 6 0 1 0;
#X connect 6 1 28 0;
#X connect 8 0 2 1;
#X connect 10 0 2 0;
#X connect 10 1 12 0;
#X connect 10 2 25 0;
#X connect 10 3 16 0;
#X connect 12 0 8 0;
#X connect 12 1 14 0;
#X connect 14 0 15 0;
#X connect 15 0 30 0;
#X connect 16 0 15 0;
#X connect 17 0 13 0;
#X connect 18 0 19 0;
#X connect 19 0 21 0;
#X connect 19 1 22 0;
#X connect 20 0 10 0;
#X connect 21 0 24 0;
#X connect 21 0 29 0;
#X connect 22 0 23 0;
#X connect 23 0 24 0;
#X connect 24 0 20 1;
#X connect 25 0 15 0;
#X connect 26 0 13 0;
#X connect 27 0 13 0;
#X connect 28 0 39 0;
#X connect 29 0 33 0;
#X connect 29 0 31 0;
#X connect 30 0 32 0;
#X connect 30 1 17 0;
#X connect 30 2 26 0;
#X connect 30 3 27 0;
#X connect 30 3 31 0;
#X connect 31 0 32 0;
#X connect 32 0 35 0;
#X connect 33 0 15 0;
#X connect 34 0 13 0;
#X connect 35 0 17 0;
#X connect 35 1 34 0;
#X connect 35 2 27 0;
#X connect 36 0 37 0;
#X connect 37 1 38 0;
#X connect 38 0 31 0;
#X restore 1064 557 pd incoming-midi-clock-transport;
#X msg 824 259 /oled/gPrintln 3 74 20 8 1 \$1;
#X msg 865 188 /oled/gPrintln 3 74 31 8 1 \$1;
#X msg 906 119 /oled/gPrintln 3 74 42 8 1 \$1;
#X msg 851 240 /oled/gFillArea 3 73 20 21 9 0;
#X connect 2 0 3 0;
#X connect 4 0 3 0;
#X connect 5 0 3 0;
#X connect 6 0 3 0;
#X connect 7 0 9 0;
#X connect 7 1 11 0;
#X connect 7 2 12 0;
#X connect 8 0 43 0;
#X connect 9 0 57 0;
#X connect 9 1 10 0;
#X connect 10 0 43 0;
#X connect 11 0 8 0;
#X connect 11 1 13 0;
#X connect 12 0 62 0;
#X connect 12 1 63 0;
#X connect 13 0 43 0;
#X connect 17 0 74 0;
#X connect 17 1 77 0;
#X connect 18 0 75 0;
#X connect 18 1 23 0;
#X connect 19 0 76 0;
#X connect 19 1 24 0;
#X connect 20 0 17 0;
#X connect 20 1 18 0;
#X connect 20 2 19 0;
#X connect 23 0 50 0;
#X connect 24 0 50 0;
#X connect 29 0 30 0;
#X connect 30 0 64 0;
#X connect 31 0 51 0;
#X connect 31 1 51 1;
#X connect 32 0 33 0;
#X connect 33 0 35 0;
#X connect 35 0 38 0;
#X connect 36 0 37 0;
#X connect 37 0 39 0;
#X connect 37 1 40 0;
#X connect 38 0 34 0;
#X connect 39 0 42 0;
#X connect 40 0 41 0;
#X connect 41 0 42 0;
#X connect 42 0 38 1;
#X connect 43 0 3 0;
#X connect 44 0 45 0;
#X connect 45 0 46 0;
#X connect 45 1 47 0;
#X connect 46 0 49 0;
#X connect 47 0 48 0;
#X connect 48 0 49 0;
#X connect 49 0 43 1;
#X connect 49 1 50 1;
#X connect 50 0 3 0;
#X connect 51 0 35 0;
#X connect 53 0 3 0;
#X connect 54 0 3 0;
#X connect 55 0 3 0;
#X connect 56 0 3 0;
#X connect 57 0 43 0;
#X connect 59 0 3 0;
#X connect 60 0 3 0;
#X connect 61 0 3 0;
#X connect 62 0 43 0;
#X connect 63 0 43 0;
#X connect 64 0 2 0;
#X connect 64 1 68 0;
#X connect 64 2 53 0;
#X connect 64 3 55 0;
#X connect 64 4 5 0;
#X connect 64 5 61 0;
#X connect 64 6 54 0;
#X connect 64 7 56 0;
#X connect 64 8 6 0;
#X connect 64 9 60 0;
#X connect 64 10 70 0;
#X connect 64 11 71 0;
#X connect 64 12 72 0;
#X connect 64 13 69 0;
#X connect 64 14 67 0;
#X connect 64 15 65 0;
#X connect 64 16 59 0;
#X connect 64 17 66 0;
#X connect 64 18 4 0;
#X connect 65 0 3 0;
#X connect 66 0 3 0;
#X connect 67 0 3 0;
#X connect 68 0 3 0;
#X connect 69 0 3 0;
#X connect 70 0 3 0;
#X connect 71 0 3 0;
#X connect 72 0 3 0;
#X connect 74 0 50 0;
#X connect 75 0 50 0;
#X connect 76 0 50 0;
#X connect 77 0 50 0;
#X restore 32 49 pd input-monitor;
#N canvas 13 50 450 300 cg-pd-library-local 0;
#X obj 502 35 r cgSc-1-slots;
#X obj 60 68 declare -path cg-pd-library-local/sampling;
#X obj 60 98 declare -path cg-pd-library-local/sequencer;
#X obj 58 130 declare -path cg-pd-library-local/externals;
#X obj 59 165 declare -path cg-pd-library-local/metronome;
#X restore 543 95 pd cg-pd-library-local;
#N canvas 4 50 1287 682 output-monitor 0;
#X text 14 747 Line \, start x \, y \, end x \, y color;
#X text 14 730 Print Line \, x \, y \, size \, color \, stuff to print
;
#X msg 9 458 /oled/gFlip 3;
#X obj 228 529 s oscOut;
#X msg 270 75 /oled/gClear 3 1;
#X msg 67 374 /oled/gPrintln 3 0 31 8 1 Vel;
#X obj 8 8 r page-ready;
#X text 417 96 nr clk;
#X msg 52 395 /oled/gPrintln 3 0 20 8 1 #;
#X text 369 182 bottom;
#X msg 241 118 /oled/gLine 3 50 8 50 51 1;
#X msg 81 352 /oled/gPrintln 3 0 42 8 1 Ch;
#X obj 9 48 t b b b b b b b b b b b b b b b b b b b, f 44;
#X msg 226 139 /oled/gLine 3 0 29 93 29 1;
#X msg 24 437 /oled/gInvertArea 3 0 8 94 10;
#X msg 153 246 /oled/gPrintln 3 110 11 8 1 C;
#X msg 169 223 /oled/gPrintln 3 110 20 8 1 L;
#X msg 184 202 /oled/gPrintln 3 110 30 8 1 K;
#X obj 8 29 sel 2;
#X msg 535 298 /oled/gPrintln 3 25 31 8 1 \$1;
#X obj 502 363 t a b;
#X msg 529 381 /oled/gFillArea 3 24 20 20 9 0;
#X obj 535 257 t a b;
#X msg 562 278 /oled/gFillArea 3 24 30 20 9 0;
#X text 625 113 Note Channel;
#X text 574 258 Note Velocity;
#X text 541 363 Note Number;
#X obj 877 355 t a b;
#X obj 917 265 t a b;
#X obj 958 177 t a b;
#X text 956 266 CC Number;
#X text 916 355 CC Val;
#X msg 944 286 /oled/gFillArea 3 73 30 20 9 0;
#X msg 985 198 /oled/gFillArea 3 73 20 20 9 0;
#X text 996 177 CC Channel;
#X msg 502 399 /oled/gPrintln 3 25 20 8 1 \$1;
#X msg 585 198 /oled/gPrintln 3 25 42 8 1 \$1;
#X msg 612 134 /oled/gFillArea 3 24 42 20 9 0;
#X text 450 37 Display Outgoing MIDI Notes & CCs;
#X obj 694 35 r notes;
#X obj 694 56 spigot 0;
#X obj 504 87 t a b, f 14;
#X obj 502 116 unpack;
#X text 597 87 Outgoing Notes;
#X obj 585 114 t b b;
#X obj 600 154 r midiOutCh;
#X obj 585 176 f;
#X obj 585 221 s oscOut;
#X obj 535 329 s oscOut;
#X obj 502 432 s oscOut;
#X obj 883 -3 r page-ready;
#X obj 883 18 sel 2;
#X obj 910 42 t b;
#X obj 910 63 f 0;
#X obj 883 39 f 1;
#X obj 883 84 t f f;
#X obj 877 154 unpack 0 0 0, f 14;
#X text 972 156 Outgoing CCs, f 13;
#N canvas 4 50 1116 682 knob-ccs 0;
#X obj 57 226 i;
#X obj 57 248 change;
#X obj 229 228 i;
#X obj 229 250 change;
#X obj 399 232 i;
#X obj 399 254 change;
#X obj 577 229 i;
#X obj 577 251 change;
#X obj 577 207 / 8;
#X obj 399 210 / 8;
#X obj 229 206 / 8;
#X obj 57 204 / 8;
#X obj 57 107 r knob1Raw;
#X obj 229 118 r knob2Raw;
#X obj 399 114 r knob3Raw;
#X obj 577 124 r knob4Raw;
#X obj 120 297 r midiOutCh;
#X obj 57 323 pack 0 21 0;
#X obj 290 297 r midiOutCh;
#X obj 470 297 r midiOutCh;
#X obj 630 297 r midiOutCh;
#X obj 95 422 outlet;
#X obj 227 323 pack 0 22 0;
#X obj 407 323 pack 0 23 0;
#X obj 567 323 pack 0 24 0;
#X connect 0 0 1 0;
#X connect 1 0 17 0;
#X connect 2 0 3 0;
#X connect 3 0 22 0;
#X connect 4 0 5 0;
#X connect 5 0 23 0;
#X connect 6 0 7 0;
#X connect 7 0 24 0;
#X connect 8 0 6 0;
#X connect 9 0 4 0;
#X connect 10 0 2 0;
#X connect 11 0 0 0;
#X connect 12 0 11 0;
#X connect 13 0 10 0;
#X connect 14 0 9 0;
#X connect 15 0 8 0;
#X connect 16 0 17 2;
#X connect 17 0 21 0;
#X connect 18 0 22 2;
#X connect 19 0 23 2;
#X connect 20 0 24 2;
#X connect 22 0 21 0;
#X connect 23 0 21 0;
#X connect 24 0 21 0;
#X restore 877 114 pd knob-ccs;
#X obj 877 134 spigot 0;
#X obj 958 240 s oscOut;
#X obj 917 329 s oscOut;
#X obj 877 413 s oscOut;
#X msg 867 663 /oled/gFlip 3;
#X obj 867 617 t b b b;
#X obj 867 464 r midi-ticks;
#X obj 1008 505 r page-ready;
#X obj 1008 526 sel 2;
#X obj 1035 547 t b;
#X obj 1035 568 f 0;
#X obj 1008 547 f 1;
#X obj 867 595 spigot 0, f 24;
#X obj 867 485 f;
#X obj 918 486 + 1;
#X obj 918 507 moses 25;
#X obj 963 526 t b;
#X msg 963 545 0;
#X obj 918 571 f;
#X obj 867 506 sel 0;
#X obj 867 698 s oscOut;
#X text 948 467 flash midi clock;
#X msg 970 664 /oled/gInvertArea 3 105 9 15 29;
#X obj 1122 464 loadbang;
#X obj 1122 485 t b b, f 8;
#X msg 1167 508 120;
#X msg 1122 506 1;
#X obj 1122 551 metronome360 1;
#X text 1111 571 120 bpm midi clock;
#X msg 97 330 /oled/gPrintln 3 55 9 8 1 CC Out;
#X msg 38 413 /oled/gPrintln 3 1 9 8 1 Note Out;
#X msg 110 310 /oled/gPrintln 3 53 20 8 1 Val;
#X msg 125 288 /oled/gPrintln 3 53 31 8 1 #;
#X msg 139 268 /oled/gPrintln 3 53 42 8 1 Ch;
#X msg 877 392 /oled/gPrintln 3 75 20 8 1 \$1;
#X msg 917 307 /oled/gPrintln 3 75 31 8 1 \$1;
#X msg 958 218 /oled/gPrintln 3 75 42 8 1 \$1;
#X msg 904 373 /oled/gFillArea 3 73 20 21 9 0;
#X msg 212 160 /oled/gLine 3 0 40 94 40 1;
#X msg 197 180 /oled/gLine 3 0 51 94 51 1;
#X msg 309 472 /oled/gPrintln 3 104 42 8 1 120;
#X msg 305 500 /oled/gPrintln 3 104 52 8 1 BPM;
#N canvas 4 50 887 621 midi-transport 0;
#X obj 369 12 r page-ready;
#X obj 369 33 sel 2;
#X obj 396 54 t b;
#X obj 396 75 f 0;
#X obj 369 54 f 1;
#X obj 228 132 spigot 0, f 24;
#X obj 228 34 r aux;
#X obj 228 58 + 1;
#X obj 277 58 f;
#X obj 228 84 % 2;
#X msg 227 437 /oled/gFlip 3;
#X obj 389 487 s oscOut;
#X obj 345 269 midiout;
#X obj 345 228 f 250;
#X obj 391 229 f 252;
#X obj 345 192 sel 1 0;
#X text 394 215 stop;
#X text 308 229 start;
#X msg 590 131 /oled/gPrintln 3 0 55 8 1 Aux Trnsp:;
#X msg 251 311 /oled/gPrintln 3 60 55 8 1 Start;
#X msg 615 111 /oled/gFillArea 3 0 55 59 9 0;
#X msg 464 246 /oled/gFillArea 3 60 55 33 9 0;
#X msg 458 312 /oled/gPrintln 3 60 55 8 1 Stop;
#X obj 584 210 s oscOut;
#X obj 227 157 t b a b, f 40;
#X obj 540 66 delay 100;
#X obj 540 88 t b b b b, f 13;
#X msg 540 180 /oled/gPrintln 3 60 55 8 1 - - -;
#X msg 565 155 /oled/gFillArea 3 60 55 33 9 0;
#X connect 0 0 1 0;
#X connect 1 0 4 0;
#X connect 1 0 25 0;
#X connect 1 1 2 0;
#X connect 2 0 3 0;
#X connect 3 0 5 1;
#X connect 4 0 5 1;
#X connect 5 0 24 0;
#X connect 6 0 7 0;
#X connect 7 0 8 0;
#X connect 7 0 9 0;
#X connect 8 0 7 1;
#X connect 9 0 5 0;
#X connect 10 0 11 0;
#X connect 13 0 12 0;
#X connect 14 0 12 0;
#X connect 15 0 13 0;
#X connect 15 0 19 0;
#X connect 15 1 14 0;
#X connect 15 1 22 0;
#X connect 18 0 23 0;
#X connect 19 0 11 0;
#X connect 20 0 23 0;
#X connect 21 0 11 0;
#X connect 22 0 11 0;
#X connect 24 0 10 0;
#X connect 24 1 15 0;
#X connect 24 2 21 0;
#X connect 25 0 26 0;
#X connect 26 0 27 0;
#X connect 26 1 28 0;
#X connect 26 2 18 0;
#X connect 26 3 20 0;
#X connect 27 0 23 0;
#X connect 28 0 23 0;
#X restore 612 487 pd midi-transport;
#X msg 255 97 /oled/gLine 3 94 8 94 62 1;
#X connect 2 0 3 0;
#X connect 4 0 3 0;
#X connect 5 0 3 0;
#X connect 6 0 18 0;
#X connect 8 0 3 0;
#X connect 10 0 3 0;
#X connect 11 0 3 0;
#X connect 12 0 2 0;
#X connect 12 1 14 0;
#X connect 12 2 89 0;
#X connect 12 3 8 0;
#X connect 12 4 5 0;
#X connect 12 5 11 0;
#X connect 12 6 88 0;
#X connect 12 7 90 0;
#X connect 12 8 91 0;
#X connect 12 9 92 0;
#X connect 12 10 15 0;
#X connect 12 11 16 0;
#X connect 12 12 17 0;
#X connect 12 13 98 0;
#X connect 12 14 97 0;
#X connect 12 15 13 0;
#X connect 12 16 10 0;
#X connect 12 17 102 0;
#X connect 12 17 99 0;
#X connect 12 17 100 0;
#X connect 12 18 4 0;
#X connect 13 0 3 0;
#X connect 14 0 3 0;
#X connect 15 0 3 0;
#X connect 16 0 3 0;
#X connect 17 0 3 0;
#X connect 18 0 12 0;
#X connect 19 0 48 0;
#X connect 20 0 35 0;
#X connect 20 1 21 0;
#X connect 21 0 49 0;
#X connect 22 0 19 0;
#X connect 22 1 23 0;
#X connect 23 0 48 0;
#X connect 27 0 93 0;
#X connect 27 1 96 0;
#X connect 28 0 94 0;
#X connect 28 1 32 0;
#X connect 29 0 95 0;
#X connect 29 1 33 0;
#X connect 32 0 61 0;
#X connect 33 0 60 0;
#X connect 35 0 49 0;
#X connect 36 0 47 0;
#X connect 37 0 47 0;
#X connect 39 0 40 0;
#X connect 40 0 41 0;
#X connect 41 0 42 0;
#X connect 41 1 44 0;
#X connect 42 0 20 0;
#X connect 42 1 22 0;
#X connect 44 0 46 0;
#X connect 44 1 37 0;
#X connect 45 0 46 1;
#X connect 46 0 36 0;
#X connect 50 0 51 0;
#X connect 51 0 54 0;
#X connect 51 1 52 0;
#X connect 52 0 53 0;
#X connect 53 0 55 0;
#X connect 54 0 55 0;
#X connect 55 0 40 1;
#X connect 55 1 59 1;
#X connect 56 0 27 0;
#X connect 56 1 28 0;
#X connect 56 2 29 0;
#X connect 58 0 59 0;
#X connect 59 0 56 0;
#X connect 63 0 79 0;
#X connect 64 0 63 0;
#X connect 64 1 81 0;
#X connect 65 0 72 0;
#X connect 66 0 67 0;
#X connect 67 0 70 0;
#X connect 67 1 68 0;
#X connect 68 0 69 0;
#X connect 69 0 71 1;
#X connect 70 0 71 1;
#X connect 71 0 64 0;
#X connect 72 0 73 0;
#X connect 72 0 78 0;
#X connect 73 0 74 0;
#X connect 74 0 77 0;
#X connect 74 1 75 0;
#X connect 75 0 76 0;
#X connect 76 0 77 0;
#X connect 77 0 72 1;
#X connect 78 0 71 0;
#X connect 81 0 79 0;
#X connect 82 0 83 0;
#X connect 83 0 85 0;
#X connect 83 1 84 0;
#X connect 84 0 86 1;
#X connect 85 0 86 0;
#X connect 88 0 3 0;
#X connect 89 0 3 0;
#X connect 90 0 3 0;
#X connect 91 0 3 0;
#X connect 92 0 3 0;
#X connect 93 0 62 0;
#X connect 94 0 61 0;
#X connect 95 0 60 0;
#X connect 96 0 62 0;
#X connect 97 0 3 0;
#X connect 98 0 3 0;
#X connect 99 0 3 0;
#X connect 100 0 3 0;
#X connect 102 0 3 0;
#X restore 32 72 pd output-monitor;
#X msg 381 195 0;
#X connect 1 0 3 0;
#X connect 2 0 10 0;
#X connect 2 1 0 0;
#X connect 3 0 2 0;
#X connect 5 0 6 0;
#X connect 10 0 5 0;
