#N canvas 4 50 1358 682 10;
#N canvas 310 50 758 895 menu5 0;
#X obj 423 307 f 0;
#X obj 423 180 sel 0 1, f 16;
#X obj 423 244 t b b;
#X msg 450 272 -1;
#X obj 481 373 + 1;
#X obj 469 243 t b b;
#X msg 496 273 1;
#X obj 423 107 r enc;
#X obj 209 657 f;
#X obj 209 579 sel 1;
#X obj 209 845 outlet;
#X obj 209 457 spigot 0;
#X obj 423 152 spigot 0;
#X obj 249 4 inlet;
#X obj 249 46 t f f, f 37;
#X text 300 4 enable;
#X obj 102 295 r encbut;
#X obj 539 544 change -1;
#X obj 539 842 outlet;
#X text 79 789 page;
#X text 591 845 selection;
#X text 356 676 keep redundants going out;
#X obj 404 838 outlet;
#X text 447 782 go home;
#X obj 481 397 moses 0;
#X obj 481 418 t b;
#X obj 481 439 f 0;
#X obj 565 441 t b;
#X obj 520 491 f;
#X obj 520 512 t a a a;
#X obj 691 392 f;
#X obj 565 462 f \$1;
#X obj 520 417 moses \$1;
#X obj 209 697 t f f, f 33;
#X obj 404 803 sel \$1;
#X connect 0 0 4 0;
#X connect 1 0 2 0;
#X connect 1 1 5 0;
#X connect 2 0 0 0;
#X connect 2 1 3 0;
#X connect 3 0 4 1;
#X connect 4 0 24 0;
#X connect 5 0 0 0;
#X connect 5 1 6 0;
#X connect 6 0 4 1;
#X connect 7 0 12 0;
#X connect 8 0 33 0;
#X connect 9 0 8 0;
#X connect 11 0 9 0;
#X connect 12 0 1 0;
#X connect 13 0 14 0;
#X connect 14 0 11 1;
#X connect 14 1 12 1;
#X connect 16 0 11 0;
#X connect 17 0 18 0;
#X connect 24 0 25 0;
#X connect 24 1 32 0;
#X connect 25 0 26 0;
#X connect 26 0 28 0;
#X connect 27 0 31 0;
#X connect 28 0 29 0;
#X connect 29 0 8 1;
#X connect 29 1 17 0;
#X connect 29 2 30 0;
#X connect 30 0 0 1;
#X connect 31 0 28 0;
#X connect 32 0 28 0;
#X connect 32 1 27 0;
#X connect 33 0 10 0;
#X connect 33 1 34 0;
#X connect 34 0 22 0;
#X restore 256 295 pd menu5;
#X obj 296 455 s goHome;
#X obj 837 503 screenpager 1 1;
#X obj 863 174 knobpager 1 1;
#X obj 1323 172 auxpager 1;
#X obj 1323 196 auxpager 2;
#X obj 1324 219 auxpager 3;
#X obj 1324 243 auxpager 4;
#X obj 526 421 sel 0;
#X obj 956 503 screenpager 1 2;
#X obj 1071 503 screenpager 1 3;
#X obj 1187 503 screenpager 1 4;
#X obj 1303 503 screenpager 1 5;
#X obj 837 528 screenpager 2 1;
#X obj 838 554 screenpager 3 1;
#X obj 837 577 screenpager 4 1;
#X obj 956 577 screenpager 4 2;
#X obj 1071 577 screenpager 4 3;
#X obj 1187 577 screenpager 4 4;
#X obj 1303 577 screenpager 4 5;
#X obj 1304 554 screenpager 3 5;
#X obj 1188 554 screenpager 3 4;
#X obj 1072 554 screenpager 3 3;
#X obj 956 554 screenpager 3 2;
#X obj 956 528 screenpager 2 2;
#X obj 1071 528 screenpager 2 3;
#X obj 1187 528 screenpager 2 4;
#X obj 1303 528 screenpager 2 5;
#X obj 526 394 r page-ready;
#X obj 526 450 t b b;
#X obj 1072 370 savevals;
#X obj 397 229 recallvals;
#X obj 433 671 outlet;
#X obj 172 64 inlet;
#X obj 336 177 t b b;
#N canvas 8 50 888 483 change-page 1;
#X obj 186 372 s knob-page-sel;
#X obj 246 349 s screen-page-sel;
#N canvas 9 50 450 300 clear-oled 0;
#X msg 91 123 \; oscOut send /oled/line/1 \; oscOut send /oled/line/2
\; oscOut send /oled/line/3 \; oscOut send /oled/line/4 \; oscOut send
/oled/line/5 \;;
#X obj 91 47 inlet;
#X obj 91 68 t b;
#X connect 1 0 2 0;
#X connect 2 0 0 0;
#X restore 266 325 pd clear-oled;
#X obj 419 374 s page-closing;
#X obj 50 357 s page-ready;
#X obj 365 284 t f b;
#X obj 392 403 v prevpage;
#X obj 151 236 t f f f b f;
#X obj 155 401 v curpage;
#X obj 392 348 t f f;
#X obj 119 283 t f f;
#X obj 392 321 f 0;
#X obj 151 144 inlet;
#X text 314 49 goes like this:;
#X text 353 71 close current page;
#X text 354 89 save current page number as previous;
#X text 354 107 clear the screen;
#X text 353 148 load the stored values for given page (knob-page-sel)
;
#X text 353 127 enable screen for given page (screen-page-sel);
#X text 352 169 update the current page value;
#X text 351 192 send the new page number out so the resto of the patch
can act.;
#X obj 151 195 + 1;
#X obj 151 165 change -2;
#X connect 5 0 11 1;
#X connect 5 1 11 0;
#X connect 7 0 10 0;
#X connect 7 1 0 0;
#X connect 7 2 1 0;
#X connect 7 3 2 0;
#X connect 7 4 5 0;
#X connect 9 0 6 0;
#X connect 9 1 3 0;
#X connect 10 0 4 0;
#X connect 10 1 8 0;
#X connect 11 0 9 0;
#X connect 12 0 22 0;
#X connect 21 0 7 0;
#X connect 22 0 21 0;
#X restore 133 553 pd change-page;
#X text 299 131 read saved values \, then enable menu;
#X text 63 576 change page events sent out from here;
#N canvas 5 50 450 300 highlight-line 0;
#X obj 136 140 s oscOut;
#X msg 136 115 send /oled/invertline \$1;
#X obj 127 46 inlet;
#X connect 1 0 0 0;
#X connect 2 0 1 0;
#X restore 502 526 pd highlight-line;
#X text 496 673 bang to draw menu;
#X text 70 63 initial page;
#X obj 501 488 f;
#X text 88 454 back to Organelle main menu;
#X text 319 16 Defines a menu with 5 entries. 5th selection goes back
to main Organelle menu. The other entries define pages.;
#X text 583 424 page 0 is menu page;
#X text 151 251 page num;
#X text 359 368 selection num;
#X text 962 136 Each page gets its own knob and aux inputs.;
#X text 970 447 Each page gets its own screen to write on;
#X text 977 323 When a saveState signal is sent from the Organelle
system menu \, save all the page values.;
#X obj 216 115 t f b;
#X obj 863 199 knobpager 2 1;
#X obj 971 173 knobpager 1 2;
#X obj 1081 173 knobpager 1 3;
#X obj 1195 172 knobpager 1 4;
#X obj 971 198 knobpager 2 2;
#X obj 1081 198 knobpager 2 3;
#X obj 1195 197 knobpager 2 4;
#X obj 863 225 knobpager 3 1;
#X obj 971 224 knobpager 3 2;
#X obj 1081 224 knobpager 3 3;
#X obj 1195 223 knobpager 3 4;
#X obj 863 250 knobpager 4 1;
#X obj 971 249 knobpager 4 2;
#X obj 1081 249 knobpager 4 3;
#X obj 1195 248 knobpager 4 4;
#X text 336 287 The encoder events are recieved in here to make selection.
;
#X text 338 303 Spits out page number on the left \, selection on right.
There are 5 pages \, 0 being the menu page.;
#X text 629 103 ARG 1: how many pages (4 max);
#X obj 216 376 moses \$1;
#X obj 410 407 t f b b;
#X obj 449 480 f -1;
#X msg 314 238 1;
#X obj 216 223 - 1;
#X connect 0 0 69 0;
#X connect 0 1 1 0;
#X connect 0 2 70 0;
#X connect 8 0 29 0;
#X connect 28 0 8 0;
#X connect 29 0 41 0;
#X connect 29 1 32 0;
#X connect 33 0 50 0;
#X connect 34 0 72 0;
#X connect 34 1 31 0;
#X connect 41 0 38 0;
#X connect 50 0 73 0;
#X connect 50 1 34 0;
#X connect 69 0 35 0;
#X connect 70 0 41 0;
#X connect 70 1 32 0;
#X connect 70 2 71 0;
#X connect 71 0 35 0;
#X connect 72 0 0 0;
#X connect 73 0 69 0;
