#N canvas 603 118 1152 805 10;
#X declare -path cg-pd-library-local/sampling;
#X declare -path cg-pd-library-local/sequencer;
#X declare -path cg-pd-library-local/externals;
#X declare -path cg-pd-library-local/metronome;
#N canvas 647 212 637 545 knob5 0;
#X obj 26 109 routeOSC /knobs;
#X obj 26 137 unpack 0 0 0 0 0 0, f 22;
#X obj 26 75 r oscIn;
#X obj 157 357 change -1;
#X obj 157 411 s knob5;
#X obj 157 187 override2 20 5;
#X obj 157 382 / 1023;
#X obj 458 291 r knob5;
#X obj 458 333 tabwrite knob5-save;
#X obj 427 97 array define knob5-save;
#X obj 366 24 r load-k5;
#X obj 366 45 t b b;
#X msg 427 72 read k5-save.txt;
#X obj 366 130 tabread knob5-save;
#X obj 366 66 f 0;
#X obj 366 151 s knob5;
#X obj 492 13 r saveState;
#X msg 495 41 write k5-save.txt;
#X connect 0 0 1 0;
#X connect 1 4 5 0;
#X connect 2 0 0 0;
#X connect 3 0 6 0;
#X connect 5 0 3 0;
#X connect 6 0 4 0;
#X connect 7 0 8 0;
#X connect 10 0 11 0;
#X connect 11 0 14 0;
#X connect 11 1 12 0;
#X connect 12 0 9 0;
#X connect 13 0 15 0;
#X connect 14 0 13 0;
#X connect 16 0 17 0;
#X connect 17 0 9 0;
#X restore 46 59 pd knob5 hack;
#X obj 594 32 r aux;
#X obj 963 435 r cgSc-1-slots;
#X obj 711 32 r \$0-reprint-port;
#X obj 996 456 r beat-clock;
#X obj 594 63 cg-shortcut 1 1, f 20;
#N canvas 4 50 450 300 seq3-controls 0;
#N canvas 100 74 1124 789 seq3-5option-control 0;
#X obj 139 278 outlet;
#X obj 65 121 t b;
#X msg 65 143 2;
#X obj 298 126 t b;
#X msg 298 148 3;
#X text 437 5 when aux is pressed after recording starts immediatley
end the rec and play the loop;
#X obj 170 70 sel 0;
#X obj 202 94 t b;
#X msg 202 116 1;
#X obj 33 66 r cgSc-1-2;
#X obj 171 48 r cgSc-1-1;
#X obj 33 88 sel 0;
#X obj 266 99 sel 0;
#X obj 317 272 r seq3-1-actions;
#X obj 317 294 sel 1, f 12;
#X obj 398 327 t b, f 4;
#X obj 317 445 s cgSc-1-1label;
#X obj 507 308 r seq3-1-actions;
#X obj 588 353 t b, f 4;
#X obj 507 329 sel 2 3, f 12;
#X obj 978 340 t b, f 4;
#X msg 978 375 Latch:Off;
#X msg 896 375 Latch:On;
#X obj 507 441 s cgSc-1-2label;
#X text 521 279 print to the shortcut menu;
#X obj 378 141 f 0;
#X obj 130 0 r midi-start;
#X msg 130 22 4;
#X obj 373 105 r midi-stop;
#X obj 507 125 t b;
#X obj 475 98 sel 0;
#X msg 507 147 5;
#X obj 192 487 r seq3-1-actions;
#X obj 273 532 t b, f 4;
#X obj 192 508 sel 5, f 12;
#X obj 317 373 f;
#X msg 317 403 \$1Seq:Stop;
#X obj 398 372 f;
#X msg 398 402 \$1Seq:Play;
#X msg 507 399 \$1Rec:Armd;
#X msg 588 397 \$1Rec:On;
#X msg 659 398 \$1Rec:Off;
#X obj 507 374 f;
#X obj 582 373 f;
#X obj 649 370 f;
#X obj 273 554 f;
#X obj 192 560 f;
#X msg 192 607 \$1Dub:On;
#X obj 201 286 r cgSc-1-slots;
#X obj 201 329 t b f f;
#X obj 166 439 s seq3-1-actions;
#X obj 166 415 v seq3-1-state;
#X obj 201 309 + 1;
#X obj 668 299 + 1;
#X obj 668 251 r cgSc-1-slots;
#X obj 321 507 + 1;
#X obj 321 483 r cgSc-1-slots;
#X obj 559 76 sel 1;
#X obj 612 80 r seq3-1-actions;
#X obj 559 174 t b b;
#X msg 640 152 0;
#X obj 559 152 spigot 0;
#X msg 612 129 1;
#X msg 559 196 1;
#X obj 192 650 s cgSc-1-3label;
#X obj 475 71 r cgSc-1-3;
#X obj 559 52 r cgSc-1-aux;
#X obj 896 418 s cgSc-1-5label;
#X obj 267 72 r cgSc-1-5;
#X obj 358 53 t b;
#X obj 326 26 sel 0;
#X obj 326 2 r cgSc-1-4;
#X msg 358 75 6;
#X obj 465 480 r seq3-1-actions;
#X obj 507 558 f;
#X obj 584 501 + 1;
#X obj 584 477 r cgSc-1-slots;
#X obj 465 643 s cgSc-1-4label;
#X obj 612 104 sel 3, f 12;
#X msg 273 607 \$1Dub:Off;
#X obj 465 501 sel 6, f 10;
#X obj 532 526 t b;
#X obj 465 585 spigot 1;
#X obj 552 582 spigot 0;
#X obj 675 510 r seq3-1-actions;
#X obj 675 532 sel 3;
#X obj 591 537 ==;
#X obj 637 564 f;
#X msg 637 533 1;
#X msg 708 615 0;
#X msg 552 607 \$1:Undo;
#X msg 465 610 \$1:Undid;
#X obj 465 523 t b b;
#X msg 70 229 0;
#X obj 23 341 r init-1-slot;
#X obj 23 363 s cgSc-1-slots;
#X obj 896 255 r seq3-1-togLatch;
#X obj 896 316 sel 1, f 12;
#X obj 20 182 r kill-seq;
#X obj 211 138 r kill-latch;
#X msg 211 159 7;
#X obj 827 101 inlet reprint-to-sc;
#X obj 842 141 r seq3-1-actions;
#X obj 827 164 f;
#X obj 827 122 t b;
#X obj 827 208 s seq3-1-actions;
#X obj 896 276 f;
#X obj 781 258 r seq3-1-actions;
#X obj 781 279 t b;
#X connect 1 0 2 0;
#X connect 2 0 0 0;
#X connect 3 0 4 0;
#X connect 4 0 0 0;
#X connect 6 1 7 0;
#X connect 7 0 8 0;
#X connect 8 0 0 0;
#X connect 9 0 11 0;
#X connect 10 0 6 0;
#X connect 11 1 1 0;
#X connect 12 1 3 0;
#X connect 13 0 14 0;
#X connect 14 0 35 0;
#X connect 14 1 15 0;
#X connect 15 0 37 0;
#X connect 17 0 19 0;
#X connect 18 0 44 0;
#X connect 19 0 42 0;
#X connect 19 1 43 0;
#X connect 19 2 18 0;
#X connect 20 0 21 0;
#X connect 21 0 67 0;
#X connect 22 0 67 0;
#X connect 25 0 0 0;
#X connect 26 0 27 0;
#X connect 27 0 0 0;
#X connect 28 0 25 0;
#X connect 29 0 31 0;
#X connect 30 1 29 0;
#X connect 31 0 0 0;
#X connect 32 0 34 0;
#X connect 33 0 45 0;
#X connect 34 0 46 0;
#X connect 34 1 33 0;
#X connect 35 0 36 0;
#X connect 36 0 16 0;
#X connect 37 0 38 0;
#X connect 38 0 16 0;
#X connect 39 0 23 0;
#X connect 40 0 23 0;
#X connect 41 0 23 0;
#X connect 42 0 39 0;
#X connect 43 0 40 0;
#X connect 44 0 41 0;
#X connect 45 0 79 0;
#X connect 46 0 47 0;
#X connect 47 0 64 0;
#X connect 48 0 52 0;
#X connect 49 0 51 0;
#X connect 49 1 35 1;
#X connect 49 2 37 1;
#X connect 51 0 50 0;
#X connect 52 0 49 0;
#X connect 53 0 44 1;
#X connect 53 0 43 1;
#X connect 53 0 42 1;
#X connect 54 0 53 0;
#X connect 55 0 45 1;
#X connect 55 0 46 1;
#X connect 56 0 55 0;
#X connect 57 0 61 0;
#X connect 58 0 78 0;
#X connect 59 0 63 0;
#X connect 59 1 60 0;
#X connect 60 0 61 1;
#X connect 61 0 59 0;
#X connect 62 0 61 1;
#X connect 63 0 0 0;
#X connect 65 0 30 0;
#X connect 66 0 57 0;
#X connect 68 0 12 0;
#X connect 69 0 72 0;
#X connect 70 1 69 0;
#X connect 71 0 70 0;
#X connect 72 0 0 0;
#X connect 73 0 80 0;
#X connect 74 0 82 0;
#X connect 74 0 83 0;
#X connect 75 0 74 1;
#X connect 76 0 75 0;
#X connect 78 0 62 0;
#X connect 79 0 64 0;
#X connect 80 0 92 0;
#X connect 80 1 81 0;
#X connect 81 0 74 0;
#X connect 82 0 91 0;
#X connect 83 0 90 0;
#X connect 84 0 85 0;
#X connect 85 0 88 0;
#X connect 86 0 82 1;
#X connect 87 0 86 0;
#X connect 87 0 83 1;
#X connect 88 0 87 0;
#X connect 89 0 87 0;
#X connect 90 0 77 0;
#X connect 91 0 77 0;
#X connect 92 0 74 0;
#X connect 92 1 89 0;
#X connect 93 0 0 0;
#X connect 94 0 95 0;
#X connect 96 0 106 0;
#X connect 97 0 22 0;
#X connect 97 1 20 0;
#X connect 98 0 93 0;
#X connect 99 0 100 0;
#X connect 100 0 0 0;
#X connect 101 0 104 0;
#X connect 102 0 103 1;
#X connect 103 0 105 0;
#X connect 104 0 103 0;
#X connect 106 0 97 0;
#X connect 107 0 108 0;
#X connect 108 0 106 0;
#X restore 66 184 pd seq3-5option-control;
#X obj 66 244 outlet;
#X connect 0 0 1 0;
#X restore 930 411 pd seq3-controls;
#N canvas 787 330 860 595 slot-saver-1 0;
#X obj 167 38 r cgSc-1-slots;
#X obj 30 68 loadbang;
#X msg 30 140 0;
#X obj 30 161 tabread \$0-slot;
#X obj 199 225 array define \$0-slot;
#X obj 30 110 t b b;
#X msg 199 138 read slot.txt;
#X msg 243 186 write slot.txt;
#X obj 243 160 r saveState;
#X obj 167 58 t a b;
#X msg 220 84 0;
#X obj 167 107 tabwrite \$0-slot;
#X obj 30 185 s cgSc-1-slots;
#X connect 0 0 9 0;
#X connect 1 0 5 0;
#X connect 2 0 3 0;
#X connect 3 0 12 0;
#X connect 5 0 2 0;
#X connect 5 1 6 0;
#X connect 6 0 4 0;
#X connect 7 0 4 0;
#X connect 8 0 7 0;
#X connect 9 0 11 0;
#X connect 9 1 10 0;
#X connect 10 0 11 1;
#X restore 34 259 pd slot-saver-1;
#N canvas 4 50 1495 708 the-knobs 0;
#X obj 280 211 r knob1;
#X obj 414 205 r knob2;
#X obj 532 208 r knob3;
#X obj 673 208 r knob4;
#X obj 503 439 outlet;
#X obj 221 295 seq-format-event knob1;
#X obj 401 293 seq-format-event knob2;
#X obj 566 292 seq-format-event knob3;
#X obj 747 289 seq-format-event knob4;
#X obj 913 282 seq-format-event knob5;
#X obj 838 202 r knob5;
#X connect 0 0 5 0;
#X connect 1 0 6 0;
#X connect 2 0 7 0;
#X connect 3 0 8 0;
#X connect 5 0 4 0;
#X connect 6 0 4 0;
#X connect 7 0 4 0;
#X connect 8 0 4 0;
#X connect 9 0 4 0;
#X connect 10 0 9 0;
#X restore 897 373 pd the-knobs;
#X obj 594 85 list prepend notes;
#N canvas 10 50 1276 866 auto-knobs-notes-through 0;
#X obj 438 185 inlet;
#X obj 435 295 route knob1 knob2 knob3 knob4 knob5 notes, f 64;
#X obj 852 503 outlet;
#X obj 562 398 s seq3-k3;
#X obj 537 440 s seq3-k2;
#X obj 435 470 s seq3-k1;
#X obj 663 357 s seq3-k4;
#X obj 690 326 s seq3-k5;
#X connect 0 0 1 0;
#X connect 1 0 5 0;
#X connect 1 1 4 0;
#X connect 1 2 3 0;
#X connect 1 3 6 0;
#X connect 1 4 7 0;
#X connect 1 5 2 0;
#X restore 897 531 pd auto-knobs-notes-through;
#N canvas 18 50 1057 809 metro-here 0;
#X obj 550 473 r seq3-1-actions;
#X obj 528 552 f;
#X msg 609 447 0;
#X obj 654 438 t b b;
#X msg 681 465 1;
#X obj 609 409 sel 1, f 8;
#X obj 501 489 del 1;
#X obj 307 506 s beat-clock;
#X obj 412 256 loadbang;
#X msg 307 325 1;
#X obj 412 620 list, f 7;
#X obj 412 642 route 69;
#X obj 412 488 t b a;
#X msg 412 590 69;
#X msg 412 298 120;
#X obj 412 428 pack, f 10;
#X obj 447 396 t b a;
#X obj 531 311 s seq3-1-quan;
#X obj 523 218 sel 1 2 3 4;
#X msg 523 270 0;
#X msg 557 268 1;
#X obj 412 664 spigot 1;
#X obj 528 574 spigot 1, f 14;
#X obj 658 646 r cgSc-1-slots;
#X obj 658 672 + 1;
#X obj 412 709 print-line5 1, f 62;
#X obj 609 386 r cgSc-1-mute-print;
#X obj 731 438 loadbang;
#X obj 731 460 del 1;
#X obj 731 482 t b b;
#X obj 781 533 r rec-state;
#X obj 781 554 sel 0, f 13;
#X msg 781 664 1;
#X msg 856 665 0;
#X obj 856 604 t b b;
#X obj 781 625 spigot 1;
#X obj 781 575 t b b;
#X msg 781 596 1;
#X msg 883 634 0;
#X obj 474 347 r 5-page-global;
#X obj 474 368 sel 2;
#X obj 501 393 t b;
#X obj 609 505 t f f;
#X obj 501 510 t b b;
#X obj 307 354 metronome360 0 0, f 18;
#X connect 0 0 1 0;
#X connect 1 0 22 0;
#X connect 2 0 42 0;
#X connect 3 0 6 0;
#X connect 3 1 4 0;
#X connect 4 0 42 0;
#X connect 5 0 2 0;
#X connect 5 1 3 0;
#X connect 6 0 43 0;
#X connect 8 0 14 0;
#X connect 8 0 9 0;
#X connect 9 0 44 0;
#X connect 10 0 11 0;
#X connect 11 0 21 0;
#X connect 12 0 13 0;
#X connect 12 1 10 1;
#X connect 13 0 10 0;
#X connect 14 0 44 1;
#X connect 15 0 12 0;
#X connect 16 0 15 0;
#X connect 16 1 15 1;
#X connect 18 0 19 0;
#X connect 18 1 20 0;
#X connect 18 2 20 0;
#X connect 18 3 19 0;
#X connect 19 0 17 0;
#X connect 20 0 17 0;
#X connect 21 0 25 0;
#X connect 22 0 25 1;
#X connect 23 0 24 0;
#X connect 24 0 25 2;
#X connect 26 0 5 0;
#X connect 27 0 28 0;
#X connect 28 0 29 0;
#X connect 29 0 1 0;
#X connect 29 1 24 0;
#X connect 30 0 31 0;
#X connect 31 0 36 0;
#X connect 31 1 34 0;
#X connect 32 0 25 3;
#X connect 33 0 25 3;
#X connect 34 0 33 0;
#X connect 34 1 38 0;
#X connect 35 0 32 0;
#X connect 36 0 37 0;
#X connect 36 1 35 0;
#X connect 37 0 35 1;
#X connect 38 0 35 1;
#X connect 39 0 40 0;
#X connect 40 1 41 0;
#X connect 41 0 6 0;
#X connect 42 0 22 1;
#X connect 42 1 21 1;
#X connect 43 0 13 0;
#X connect 43 1 1 0;
#X connect 44 0 7 0;
#X connect 44 1 16 0;
#X connect 44 2 15 0;
#X connect 44 2 18 0;
#X restore 39 122 pd metro-here;
#X obj 34 203 r seq3-1-led;
#X obj 34 224 s led;
#X obj 594 106 list trim;
#N canvas 4 50 450 300 load 0;
#X obj 30 26 loadbang;
#X obj 30 47 t b b b b;
#X obj 64 144 s load-k5;
#X obj 96 102 s midiOutGate;
#X obj 47 168 s load-wave;
#X msg 95 70 0;
#X obj 22 202 s load-labels;
#X connect 0 0 1 0;
#X connect 1 0 6 0;
#X connect 1 1 4 0;
#X connect 1 2 2 0;
#X connect 1 3 5 0;
#X connect 5 0 3 0;
#X restore 53 163 pd load;
#N canvas 490 75 1207 845 lfo-synth 0;
#X obj 332 517 lop~ 100;
#X obj 292 740 outlet~;
#X obj 220 16 inlet;
#X text 273 15 midi notes;
#X obj 220 77 unpack 0 0, f 17;
#X obj 222 158 - 12;
#X obj 222 179 % 24;
#X obj 222 200 swap, f 17;
#X obj 222 231 sel 0;
#X obj 292 653 *~, f 7;
#X obj 184 458 vline~;
#X obj 184 479 pow~ 2;
#X msg 184 387 1 20;
#X msg 224 388 0 200;
#X obj 306 311 f;
#N canvas 4 50 1020 638 convert 0;
#X obj 37 37 inlet;
#X text 101 480 freq;
#X obj 81 423 r \$0-2-outlet;
#X obj 51 479 outlet;
#X obj 409 155 text define freqs;
#X obj 336 37 r load-wave;
#X msg 409 123 read freqs.txt;
#X msg 527 118 write freqs.txt;
#X obj 51 118 text get freqs;
#X obj 37 58 clip 0 22;
#X text 91 36 0 - 22 int;
#X connect 0 0 9 0;
#X connect 2 0 3 0;
#X connect 5 0 6 0;
#X connect 6 0 4 0;
#X connect 8 0 3 0;
#X connect 9 0 8 0;
#X restore 306 332 pd convert 0-23 into hz presets;
#X obj 479 504 s print-freq;
#X obj 332 462 t a a, f 25;
#X obj 583 341 unpack;
#X obj 583 373 noteout;
#X obj 627 339 r midiOutCh;
#X obj 220 37 t a a, f 37;
#X obj 743 94 r cgSc-1-6;
#X obj 743 115 sel 0;
#X obj 770 138 t b;
#X obj 805 170 + 1;
#X msg 805 212 0;
#X obj 805 191 sel 4;
#X obj 770 169 f 0;
#N canvas 4 50 624 551 triangle 0;
#N canvas 7 50 727 452 triangle 0;
#X obj 130 207 outlet~;
#X obj 131 65 inlet~;
#N canvas 699 258 779 606 triangle 0;
#X obj 80 290 -~ 0.5;
#X obj 228 290 -~ 0.5;
#X obj 134 340 -~;
#X obj 220 480 outlet~;
#X obj 80 91 phasor~ 0;
#X text 131 55 frequency;
#X obj 228 236 wrap~;
#N canvas 0 50 540 420 4*$v1*(1-$v1) 0;
#X obj 182 177 *~ 4;
#X obj 132 177 sig~ 1;
#X obj 132 200 -~;
#X obj 132 228 *~;
#X obj 182 76 inlet~;
#X obj 132 253 outlet~;
#X connect 0 0 3 1;
#X connect 1 0 2 0;
#X connect 2 0 3 0;
#X connect 3 0 5 0;
#X connect 4 0 2 1;
#X connect 4 0 0 0;
#X restore 228 262 pd 4*$v1*(1-$v1);
#N canvas 0 50 540 420 4*$v1*(1-$v1) 0;
#X obj 182 177 *~ 4;
#X obj 132 177 sig~ 1;
#X obj 132 200 -~;
#X obj 132 228 *~;
#X obj 182 76 inlet~;
#X obj 132 253 outlet~;
#X connect 0 0 3 1;
#X connect 1 0 2 0;
#X connect 2 0 3 0;
#X connect 3 0 5 0;
#X connect 4 0 2 1;
#X connect 4 0 0 0;
#X restore 79 261 pd 4*$v1*(1-$v1);
#X text 489 64 tri-saw factor (0-1);
#X obj 80 54 inlet~;
#X obj 430 66 inlet;
#X obj 430 89 clip 0.01 0.99;
#X obj 294 372 line~;
#X obj 294 350 pack 0 10;
#N canvas 0 50 540 420 4*$f1*(1-$f1) 0;
#X obj 185 177 * 4;
#X obj 137 72 inlet;
#X msg 137 171 1 \$1;
#X obj 137 200 -;
#X obj 137 228 *;
#X obj 137 107 t a a;
#X obj 137 253 outlet;
#X connect 0 0 4 1;
#X connect 1 0 5 0;
#X connect 2 0 3 0;
#X connect 3 0 4 0;
#X connect 4 0 6 0;
#X connect 5 0 2 0;
#X connect 5 1 0 0;
#X restore 430 290 pd 4*$f1*(1-$f1);
#X obj 245 151 line~;
#X obj 245 129 pack 0 10;
#X obj 227 177 +~;
#X obj 245 77 loadbang;
#X msg 245 98 0.5;
#X obj 220 414 /~;
#X obj 294 297 loadbang;
#X msg 294 318 1;
#X obj 241 45 inlet;
#X connect 0 0 2 0;
#X connect 1 0 2 1;
#X connect 2 0 21 0;
#X connect 4 0 8 0;
#X connect 4 0 18 0;
#X connect 6 0 7 0;
#X connect 7 0 1 0;
#X connect 8 0 0 0;
#X connect 10 0 4 0;
#X connect 11 0 12 0;
#X connect 12 0 15 0;
#X connect 12 0 17 0;
#X connect 13 0 21 1;
#X connect 14 0 13 0;
#X connect 15 0 14 0;
#X connect 16 0 18 1;
#X connect 17 0 16 0;
#X connect 18 0 6 0;
#X connect 19 0 20 0;
#X connect 20 0 17 0;
#X connect 21 0 3 0;
#X connect 22 0 23 0;
#X connect 23 0 14 0;
#X connect 24 0 4 1;
#X restore 130 162 pd triangle;
#X text 202 48 slope;
#X obj 189 96 loadbang;
#X msg 194 123 0.5;
#X connect 1 0 2 0;
#X connect 2 0 0 0;
#X connect 4 0 5 0;
#X connect 5 0 2 2;
#X restore 167 228 pd triangle;
#X obj 167 309 smoothswitch;
#X obj 168 250 *~ 0.69;
#X obj 254 232 r wave-sel;
#X obj 254 253 == 3;
#X obj 160 85 inlet~;
#X obj 254 274 t a a;
#X obj 167 330 outlet~;
#X obj 372 502 switch~;
#X obj 297 314 sel 0 1, f 27;
#X msg 403 463 1;
#X obj 376 339 t b b, f 6;
#X msg 330 359 stop;
#X obj 297 400 del 10;
#X obj 297 335 t b b;
#X msg 297 421 0;
#X connect 0 0 2 0;
#X connect 1 0 7 0;
#X connect 2 0 1 0;
#X connect 3 0 4 0;
#X connect 4 0 6 0;
#X connect 5 0 0 0;
#X connect 6 0 1 1;
#X connect 6 1 9 0;
#X connect 9 0 14 0;
#X connect 9 1 11 0;
#X connect 10 0 8 0;
#X connect 11 0 10 0;
#X connect 11 1 12 0;
#X connect 12 0 13 0;
#X connect 13 0 15 0;
#X connect 14 0 13 0;
#X connect 14 1 12 0;
#X connect 15 0 8 0;
#X restore 443 602 pd triangle;
#N canvas 4 50 624 551 square 0;
#X obj 167 309 smoothswitch;
#X obj 254 232 r wave-sel;
#X obj 160 85 inlet~;
#X obj 254 274 t a a;
#X obj 167 330 outlet~;
#X obj 372 502 switch~;
#X obj 297 314 sel 0 1, f 27;
#X msg 403 463 1;
#X obj 376 339 t b b, f 6;
#X msg 330 359 stop;
#X obj 297 400 del 10;
#X obj 297 335 t b b;
#X msg 297 421 0;
#X obj 166 236 s_blsquare;
#X obj 166 258 *~ 0.5;
#X obj 254 253 == 1;
#X connect 0 0 4 0;
#X connect 1 0 15 0;
#X connect 2 0 13 0;
#X connect 3 0 0 1;
#X connect 3 1 6 0;
#X connect 6 0 11 0;
#X connect 6 1 8 0;
#X connect 7 0 5 0;
#X connect 8 0 7 0;
#X connect 8 1 9 0;
#X connect 9 0 10 0;
#X connect 10 0 12 0;
#X connect 11 0 10 0;
#X connect 11 1 9 0;
#X connect 12 0 5 0;
#X connect 13 0 14 0;
#X connect 14 0 0 0;
#X connect 15 0 3 0;
#X restore 331 580 pd square;
#N canvas 4 50 624 551 saw 0;
#X obj 167 309 smoothswitch;
#X obj 254 232 r wave-sel;
#X obj 165 85 inlet~;
#X obj 254 274 t a a;
#X obj 167 330 outlet~;
#X obj 372 502 switch~;
#X obj 297 314 sel 0 1, f 27;
#X msg 403 463 1;
#X obj 376 339 t b b, f 6;
#X msg 330 359 stop;
#X obj 297 400 del 10;
#X obj 297 335 t b b;
#X msg 297 421 0;
#X obj 166 221 blsaw;
#X obj 166 243 *~ 0.5;
#X obj 254 253 == 2;
#X connect 0 0 4 0;
#X connect 1 0 15 0;
#X connect 2 0 13 0;
#X connect 3 0 0 1;
#X connect 3 1 6 0;
#X connect 6 0 11 0;
#X connect 6 1 8 0;
#X connect 7 0 5 0;
#X connect 8 0 7 0;
#X connect 8 1 9 0;
#X connect 9 0 10 0;
#X connect 10 0 12 0;
#X connect 11 0 10 0;
#X connect 11 1 9 0;
#X connect 12 0 5 0;
#X connect 13 0 14 0;
#X connect 14 0 0 0;
#X connect 15 0 3 0;
#X restore 376 604 pd saw;
#N canvas 4 50 624 551 sine 0;
#X obj 167 309 smoothswitch;
#X obj 254 232 r wave-sel;
#X obj 160 85 inlet~;
#X obj 254 274 t a a;
#X obj 167 330 outlet~;
#X obj 372 502 switch~;
#X obj 297 314 sel 0 1, f 27;
#X msg 403 463 1;
#X obj 376 339 t b b, f 6;
#X msg 330 359 stop;
#X obj 297 390 del 10;
#X obj 297 335 t b b;
#X msg 297 411 0;
#X obj 168 255 osc~ 440;
#X obj 168 277 *~ 0.7;
#X obj 254 253 == 0;
#X connect 0 0 4 0;
#X connect 1 0 15 0;
#X connect 2 0 13 0;
#X connect 3 0 0 1;
#X connect 3 1 6 0;
#X connect 6 0 11 0;
#X connect 6 1 8 0;
#X connect 7 0 5 0;
#X connect 8 0 7 0;
#X connect 8 1 9 0;
#X connect 9 0 10 0;
#X connect 10 0 12 0;
#X connect 11 0 10 0;
#X connect 11 1 9 0;
#X connect 12 0 5 0;
#X connect 13 0 14 0;
#X connect 14 0 0 0;
#X connect 15 0 3 0;
#X restore 278 558 pd sine;
#X obj 770 260 t a a;
#X obj 797 286 s wave-sel;
#X msg 770 366 Wave:Sine;
#X obj 770 494 s cgSc-1-6label;
#X obj 770 335 sel 0 1 2 3;
#X msg 834 415 Wave:Saw;
#X msg 864 442 Wave:Tri;
#X msg 799 393 Wave:Sqr;
#X obj 1062 247 array define save-wave;
#X obj 968 314 r wave-sel;
#X obj 989 115 r load-wave;
#X obj 1014 161 t b b;
#X msg 1062 201 read wave-save.txt;
#X obj 942 222 tabread save-wave;
#X msg 954 197 0;
#X obj 968 365 tabwrite save-wave;
#X obj 1103 115 r saveState;
#X msg 1094 165 write wave-save.txt;
#X obj 318 407 f;
#X obj 286 406 +;
#X obj 318 428 max 0;
#X obj 355 366 1;
#X obj 285 368 -1;
#X obj 249 261 t b b b;
#X obj 222 252 t b;
#X obj 284 454 sel 0;
#X obj 321 166 f;
#X obj 220 98 route 127;
#X obj 271 121 t a b;
#X obj 652 309 s screenLine5;
#X msg 652 261 Persist: Toggle;
#X msg 427 281 127 100;
#X msg 519 271 127 0;
#X msg 469 233 stop;
#X obj 426 262 del 45;
#X obj 439 59 unpack 0 0, f 36;
#X obj 633 205 f;
#X obj 439 80 route 127;
#X obj 583 160 t a b;
#X obj 583 233 pack 0 0;
#X obj 439 131 f;
#X obj 439 101 t b;
#X obj 439 152 sel 0;
#X obj 426 200 t b b b, f 16;
#X obj 292 714 *~;
#X obj 307 690 lop~ 20;
#X obj 397 663 r synth-vol;
#X connect 0 0 32 0;
#X connect 0 0 30 0;
#X connect 0 0 29 0;
#X connect 0 0 31 0;
#X connect 2 0 21 0;
#X connect 4 0 60 0;
#X connect 4 1 59 1;
#X connect 5 0 6 0;
#X connect 6 0 7 0;
#X connect 7 0 8 0;
#X connect 7 1 14 1;
#X connect 8 0 57 0;
#X connect 8 1 56 0;
#X connect 9 0 77 0;
#X connect 10 0 11 0;
#X connect 11 0 9 0;
#X connect 12 0 10 0;
#X connect 13 0 10 0;
#X connect 14 0 15 0;
#X connect 15 0 17 0;
#X connect 17 0 0 0;
#X connect 17 1 16 0;
#X connect 18 0 19 0;
#X connect 18 1 19 1;
#X connect 20 0 19 2;
#X connect 21 0 4 0;
#X connect 21 1 68 0;
#X connect 22 0 23 0;
#X connect 23 1 24 0;
#X connect 24 0 28 0;
#X connect 25 0 27 0;
#X connect 26 0 28 1;
#X connect 27 0 26 0;
#X connect 27 1 28 1;
#X connect 28 0 25 0;
#X connect 28 0 33 0;
#X connect 29 0 9 1;
#X connect 30 0 9 1;
#X connect 31 0 9 1;
#X connect 32 0 9 1;
#X connect 33 0 37 0;
#X connect 33 1 34 0;
#X connect 35 0 36 0;
#X connect 37 0 35 0;
#X connect 37 1 40 0;
#X connect 37 2 38 0;
#X connect 37 3 39 0;
#X connect 38 0 36 0;
#X connect 39 0 36 0;
#X connect 40 0 36 0;
#X connect 42 0 48 0;
#X connect 43 0 44 0;
#X connect 44 0 47 0;
#X connect 44 1 45 0;
#X connect 45 0 41 0;
#X connect 46 0 28 0;
#X connect 47 0 46 0;
#X connect 49 0 50 0;
#X connect 50 0 41 0;
#X connect 51 0 53 0;
#X connect 52 0 51 0;
#X connect 52 0 58 0;
#X connect 53 0 52 1;
#X connect 54 0 52 0;
#X connect 55 0 52 0;
#X connect 56 0 12 0;
#X connect 56 1 14 0;
#X connect 56 2 54 0;
#X connect 57 0 55 0;
#X connect 58 0 13 0;
#X connect 59 0 7 1;
#X connect 60 1 61 0;
#X connect 61 0 5 0;
#X connect 61 1 59 0;
#X connect 63 0 62 0;
#X connect 64 0 18 0;
#X connect 65 0 18 0;
#X connect 66 0 67 0;
#X connect 67 0 64 0;
#X connect 68 0 70 0;
#X connect 68 1 69 1;
#X connect 68 1 73 1;
#X connect 69 0 72 1;
#X connect 70 0 74 0;
#X connect 70 1 71 0;
#X connect 71 0 72 0;
#X connect 71 1 69 0;
#X connect 72 0 18 0;
#X connect 73 0 75 0;
#X connect 74 0 73 0;
#X connect 75 1 76 0;
#X connect 76 0 67 0;
#X connect 76 1 65 0;
#X connect 76 1 66 0;
#X connect 76 2 63 0;
#X connect 77 0 1 0;
#X connect 78 0 77 1;
#X connect 79 0 78 0;
#X restore 897 560 pd lfo-synth;
#X obj 244 32 r print-freq;
#X obj 244 88 s screenLine5;
#N canvas 5 50 1911 919 the-knobs 0;
#X obj 1125 622 change -1;
#X obj 1170 472 == 0;
#X obj 1157 550 t b b;
#X msg 1184 573 set -1;
#X obj 1170 448 r cgSc-1-aux;
#X obj 1157 521 r cgSc-1-rePrint;
#X obj 1125 210 r knob5;
#X obj 1175 210 r seq3-k5;
#X obj 1125 581 f;
#X obj 855 621 change -1;
#X obj 900 471 == 0;
#X obj 887 549 t b b;
#X msg 914 572 set -1;
#X obj 900 447 r cgSc-1-aux;
#X obj 887 520 r cgSc-1-rePrint;
#X obj 855 580 f;
#X obj 855 209 r knob4;
#X obj 905 209 r seq3-k4;
#X obj 1125 674 cg-draw-knob-bar 110 10 5;
#X obj 613 620 change -1;
#X obj 658 470 == 0;
#X obj 645 548 t b b;
#X msg 672 571 set -1;
#X obj 658 446 r cgSc-1-aux;
#X obj 645 519 r cgSc-1-rePrint;
#X obj 613 579 f;
#X obj 313 619 change -1;
#X obj 358 469 == 0;
#X obj 345 547 t b b;
#X msg 372 570 set -1;
#X obj 358 445 r cgSc-1-aux;
#X obj 345 518 r cgSc-1-rePrint;
#X obj 313 578 f;
#X obj 48 618 change -1;
#X obj 93 468 == 0;
#X obj 80 546 t b b;
#X msg 107 569 set -1;
#X obj 93 444 r cgSc-1-aux;
#X obj 80 517 r cgSc-1-rePrint;
#X obj 48 577 f;
#X obj 48 206 r knob1;
#X obj 98 206 r seq3-k1;
#X obj 365 207 r seq3-k2;
#X obj 313 207 r knob2;
#X obj 613 208 r knob3;
#X obj 663 208 r seq3-k3;
#X obj 48 672 cg-draw-knob-bar 5 10 1;
#X obj 613 673 cg-draw-knob-bar 58 10 3;
#X obj 313 673 cg-draw-knob-bar 32 10 2;
#X obj 855 672 cg-draw-knob-bar 84 10 4;
#X obj 48 492 spigot 1;
#X obj 313 491 spigot 1;
#X obj 613 493 spigot 1;
#X obj 855 493 spigot 1;
#X obj 1125 495 spigot 1;
#X obj 48 237 f;
#X obj 48 258 t a a;
#X obj 138 383 r midiOutCh;
#X obj 318 237 f;
#X obj 318 258 t a a;
#X obj 408 383 r midiOutCh;
#X obj 608 237 f;
#X obj 608 258 t a a;
#X obj 698 383 r midiOutCh;
#X obj 848 237 f;
#X obj 848 258 t a a;
#X obj 875 411 ctlout 24 1;
#X obj 938 383 r midiOutCh;
#X obj 1128 237 f;
#X obj 1128 258 t a a;
#X obj 1218 383 r midiOutCh;
#X obj 75 411 ctlout 21 1;
#X obj 345 411 ctlout 22 1;
#X obj 635 411 ctlout 23 1;
#X obj 1155 412 ctlout 25 1;
#X obj 75 376 line 1 20;
#X obj 75 354 pack 0 20;
#X obj 345 376 line 1 20;
#X obj 345 354 pack 0 20;
#X obj 635 376 line 1 20;
#X obj 635 354 pack 0 20;
#X obj 875 376 line 1 20;
#X obj 875 354 pack 0 20;
#X obj 1155 376 line 1 20;
#X obj 1155 354 pack 0 20;
#X obj 75 294 * 127;
#X obj 345 292 * 127;
#X obj 75 315 i;
#X obj 345 313 i;
#X obj 635 294 * 127;
#X obj 872 300 * 127;
#X obj 635 315 i;
#X obj 872 321 i;
#X obj 1152 301 * 127;
#X obj 1152 322 i;
#X connect 0 0 18 0;
#X connect 1 0 54 1;
#X connect 2 0 8 0;
#X connect 2 1 3 0;
#X connect 3 0 0 0;
#X connect 4 0 1 0;
#X connect 5 0 2 0;
#X connect 6 0 68 0;
#X connect 7 0 68 0;
#X connect 8 0 0 0;
#X connect 9 0 49 0;
#X connect 10 0 53 1;
#X connect 11 0 15 0;
#X connect 11 1 12 0;
#X connect 12 0 9 0;
#X connect 13 0 10 0;
#X connect 14 0 11 0;
#X connect 15 0 9 0;
#X connect 16 0 64 0;
#X connect 17 0 64 0;
#X connect 19 0 47 0;
#X connect 20 0 52 1;
#X connect 21 0 25 0;
#X connect 21 1 22 0;
#X connect 22 0 19 0;
#X connect 23 0 20 0;
#X connect 24 0 21 0;
#X connect 25 0 19 0;
#X connect 26 0 48 0;
#X connect 27 0 51 1;
#X connect 28 0 32 0;
#X connect 28 1 29 0;
#X connect 29 0 26 0;
#X connect 30 0 27 0;
#X connect 31 0 28 0;
#X connect 32 0 26 0;
#X connect 33 0 46 0;
#X connect 34 0 50 1;
#X connect 35 0 39 0;
#X connect 35 1 36 0;
#X connect 36 0 33 0;
#X connect 37 0 34 0;
#X connect 38 0 35 0;
#X connect 39 0 33 0;
#X connect 40 0 55 0;
#X connect 41 0 55 0;
#X connect 42 0 58 0;
#X connect 43 0 58 0;
#X connect 44 0 61 0;
#X connect 45 0 61 0;
#X connect 50 0 39 0;
#X connect 51 0 32 0;
#X connect 52 0 25 0;
#X connect 53 0 15 0;
#X connect 54 0 8 0;
#X connect 55 0 56 0;
#X connect 56 0 50 0;
#X connect 56 1 85 0;
#X connect 57 0 71 2;
#X connect 58 0 59 0;
#X connect 59 0 51 0;
#X connect 59 1 86 0;
#X connect 60 0 72 2;
#X connect 61 0 62 0;
#X connect 62 0 52 0;
#X connect 62 1 89 0;
#X connect 63 0 73 2;
#X connect 64 0 65 0;
#X connect 65 0 53 0;
#X connect 65 1 90 0;
#X connect 67 0 66 2;
#X connect 68 0 69 0;
#X connect 69 0 54 0;
#X connect 69 1 93 0;
#X connect 70 0 74 2;
#X connect 75 0 71 0;
#X connect 76 0 75 0;
#X connect 77 0 72 0;
#X connect 78 0 77 0;
#X connect 79 0 73 0;
#X connect 80 0 79 0;
#X connect 81 0 66 0;
#X connect 82 0 81 0;
#X connect 83 0 74 0;
#X connect 84 0 83 0;
#X connect 85 0 87 0;
#X connect 86 0 88 0;
#X connect 87 0 76 0;
#X connect 88 0 78 0;
#X connect 89 0 91 0;
#X connect 90 0 92 0;
#X connect 91 0 80 0;
#X connect 92 0 82 0;
#X connect 93 0 94 0;
#X connect 94 0 84 0;
#X restore 243 144 pd the-knobs;
#X obj 897 477 seq3 1 0 ../../sequences 1 0 1, f 17;
#N canvas 13 50 450 300 cg-pd-library-local 0;
#X obj 502 35 r cgSc-1-slots;
#X obj 60 68 declare -path cg-pd-library-local/sampling;
#X obj 60 98 declare -path cg-pd-library-local/sequencer;
#X obj 58 130 declare -path cg-pd-library-local/externals;
#X obj 59 165 declare -path cg-pd-library-local/metronome;
#X restore 55 15 pd cg-pd-library-local;
#X obj 594 143 route notes;
#X obj 594 163 route 83, f 28;
#X obj 594 185 sel 0;
#X obj 759 359 list prepend notes;
#X obj 759 380 list trim;
#X obj 536 141 r fs;
#X msg 244 63 Freq: \$1hz;
#X obj 620 221 t b b b;
#X msg 663 247 127 0;
#X msg 652 280 127 101;
#X obj 256 676 s synth-vol;
#X obj 107 366 r cgSc-1-7;
#X obj 195 366 r cgSc-1-8;
#X obj 107 387 sel 0;
#X obj 134 410 t b;
#X obj 195 390 sel 0;
#X obj 222 413 t b;
#X obj 222 501 +;
#X obj 256 504 f;
#X obj 134 431 f -1;
#X obj 222 434 f 1;
#X obj 256 525 max 0;
#X obj 256 546 min 4;
#X obj 256 567 * 25;
#X obj 256 628 / 100;
#X obj 256 588 t a a, f 16;
#X obj 394 646 s cgSc-1-8label;
#X obj 349 716 s cgSc-1-7label;
#X msg 349 678 VolDwn:\$1;
#X msg 394 616 VolUp:\$1;
#X obj 897 718 dac~;
#X obj 896 659 clip~ -1 1;
#X obj 917 681 clip~ -1 1;
#X obj 256 649 pow 2;
#X obj 270 440 r load-labels;
#X obj 270 461 f 0;
#X obj 897 594 *~ 0.65;
#X connect 1 0 5 0;
#X connect 2 0 20 2;
#X connect 3 0 5 1;
#X connect 4 0 20 3;
#X connect 5 0 9 0;
#X connect 6 0 20 1;
#X connect 8 0 20 0;
#X connect 9 0 14 0;
#X connect 10 0 16 0;
#X connect 12 0 13 0;
#X connect 14 0 22 0;
#X connect 16 0 58 0;
#X connect 17 0 28 0;
#X connect 20 0 10 0;
#X connect 22 0 23 0;
#X connect 23 0 24 0;
#X connect 23 1 25 0;
#X connect 24 1 29 0;
#X connect 25 0 26 0;
#X connect 26 0 20 0;
#X connect 27 0 24 0;
#X connect 28 0 18 0;
#X connect 29 1 31 0;
#X connect 29 2 30 0;
#X connect 30 0 25 0;
#X connect 31 0 25 0;
#X connect 33 0 35 0;
#X connect 34 0 37 0;
#X connect 35 1 36 0;
#X connect 36 0 41 0;
#X connect 37 1 38 0;
#X connect 38 0 42 0;
#X connect 39 0 40 0;
#X connect 40 0 43 0;
#X connect 41 0 39 0;
#X connect 42 0 39 0;
#X connect 43 0 44 0;
#X connect 44 0 39 1;
#X connect 44 0 45 0;
#X connect 45 0 47 0;
#X connect 46 0 55 0;
#X connect 47 0 46 0;
#X connect 47 1 50 0;
#X connect 47 1 51 0;
#X connect 50 0 49 0;
#X connect 51 0 48 0;
#X connect 53 0 52 0;
#X connect 54 0 52 1;
#X connect 55 0 32 0;
#X connect 56 0 57 0;
#X connect 57 0 39 0;
#X connect 58 0 53 0;
#X connect 58 0 54 0;
