#N canvas 34 59 1310 673 10;
#X obj 51 16 loadbang;
#X obj 1114 472 i;
#X obj 1114 421 r knob4;
#X obj 1114 544 s screenLine4;
#X obj 1114 446 * 100;
#X msg 1114 522 4: Synth Tone \$1;
#N canvas 7 50 316 301 tuneup 0;
#X obj 31 224 throw~ outL;
#X obj 142 224 throw~ outR;
#X obj 67 40 r notes;
#X obj 67 93 pack 0 0 0, f 11;
#X obj 67 145 voice;
#X obj 67 66 poly 1 1, f 11;
#X obj 67 119 route 1, f 15;
#X connect 2 0 5 0;
#X connect 3 0 6 0;
#X connect 4 0 0 0;
#X connect 4 0 1 0;
#X connect 5 0 3 0;
#X connect 5 1 3 1;
#X connect 5 2 3 2;
#X connect 6 0 4 0;
#X restore 1077 584 pd tuneup;
#X text 1152 585 for tuning up;
#X obj 1114 496 change -1;
#X obj 95 443 pgmout;
#X obj 95 290 r notes;
#X obj 95 311 stripnote;
#X obj 95 334 - 12;
#X obj 95 355 % 24, f 5;
#X obj 225 323 i;
#X obj 225 259 * 9;
#X obj 225 301 * 12;
#X obj 225 280 i;
#X obj 95 385 +;
#X obj 225 238 r knob1;
#X text 408 45 Send MIDI Program Change Messages with Keyboard Keys
also play simple synth for tuning up;
#X obj 278 367 change -1;
#X obj 278 416 s screenLine1;
#X obj 616 301 s screenLine2;
#X obj 481 301 s screenLine2;
#X obj 481 254 delay 355;
#X obj 481 185 t b b a, f 23;
#X msg 548 496 0;
#X obj 548 536 s led;
#X obj 548 370 t b b;
#X msg 481 277 Prog Change Out: _;
#X msg 616 277 Prog Change Out: \$1;
#X obj 548 474 delay 100;
#X obj 671 430 f;
#X msg 630 494 \$1;
#X floatatom 663 495 5 0 0 0 - - -;
#X obj 630 451 % 7;
#X obj 630 472 + 1;
#X obj 630 430 +;
#X msg 630 409 1;
#X msg 278 391 1: Transpose + \$1;
#X obj 95 409 moses 128;
#X obj 63 475 s inrange;
#X obj 481 162 r inrange;
#X obj 146 443 s toohigh;
#X obj 930 301 s screenLine2;
#X obj 795 301 s screenLine2;
#X msg 795 277 Prog Change Out: _;
#X obj 795 162 r toohigh;
#X obj 795 185 t b a, f 23;
#X msg 930 277 Prog Chng: Too High;
#X obj 795 254 delay 555;
#X text 72 214 Notes & Transpositon;
#X text 669 127 Screen & LED;
#X text 1060 394 Synth Stuff;
#X obj 13 285 r aux;
#X obj 54 349 f;
#X obj 13 349 +;
#X msg 13 328 1;
#X obj 13 370 % 128;
#X obj 13 306 sel 1;
#X msg 51 40 \; screenLine1 1: Transpose + \; screenLine2 Prog Change
Out: _ \; screenLine3 \; screenLine4 4: Synth Tone \; screenLine5 Aux:
Single Increment \;;
#X connect 0 0 61 0;
#X connect 1 0 8 0;
#X connect 2 0 4 0;
#X connect 4 0 1 0;
#X connect 5 0 3 0;
#X connect 8 0 5 0;
#X connect 10 0 11 0;
#X connect 11 0 12 0;
#X connect 12 0 13 0;
#X connect 13 0 18 0;
#X connect 14 0 21 0;
#X connect 14 0 18 1;
#X connect 15 0 17 0;
#X connect 16 0 14 0;
#X connect 17 0 16 0;
#X connect 18 0 41 0;
#X connect 18 0 56 0;
#X connect 19 0 15 0;
#X connect 21 0 40 0;
#X connect 25 0 30 0;
#X connect 26 0 25 0;
#X connect 26 1 29 0;
#X connect 26 2 31 0;
#X connect 27 0 28 0;
#X connect 29 0 32 0;
#X connect 29 1 39 0;
#X connect 30 0 24 0;
#X connect 31 0 23 0;
#X connect 32 0 27 0;
#X connect 33 0 38 1;
#X connect 34 0 28 0;
#X connect 36 0 37 0;
#X connect 37 0 35 0;
#X connect 37 0 34 0;
#X connect 38 0 33 0;
#X connect 38 0 36 0;
#X connect 39 0 38 0;
#X connect 40 0 22 0;
#X connect 41 0 42 0;
#X connect 41 0 9 0;
#X connect 41 1 44 0;
#X connect 43 0 26 0;
#X connect 47 0 46 0;
#X connect 48 0 49 0;
#X connect 49 0 51 0;
#X connect 49 1 50 0;
#X connect 50 0 45 0;
#X connect 51 0 47 0;
#X connect 55 0 60 0;
#X connect 56 0 57 1;
#X connect 57 0 56 0;
#X connect 57 0 59 0;
#X connect 58 0 57 0;
#X connect 59 0 41 0;
#X connect 60 0 58 0;
