#N canvas 164 92 1184 866 10;
#X obj 512 252 loadbang;
#X obj 509 592 s oscOut;
#X msg 594 485 send /enablepatchsub 0;
#X msg 515 406 send /enablepatchsub 1;
#X obj 198 512 s oscOut;
#X msg 273 483 /oled/gFlip 3 1;
#X msg 210 395 /oled/gClear 3 1;
#X msg 240 422 /oled/gPrintln 3 10 10 32 1 \$1;
#X obj 237 132 sel 0 1;
#X msg 261 160 1;
#X msg 224 159 -1;
#X obj 232 232 i;
#X obj 234 265 +;
#X obj 243 289 t f f;
#X obj 278 190 t b f;
#X obj 171 204 t b f;
#X obj 151 333 print;
#X obj 270 322 t f b;
#X obj 229 65 r oscIn;
#X obj 229 91 routeOSC /encoder/turn /encoder/button;
#X obj 420 124 r aux;
#X obj 384 162 sel 1;
#X msg 407 219 0;
#X msg 374 263 0;
#X obj 240 443 t b a;
#X obj 640 200 r notes;
#X obj 736 321 stripnote;
#X obj 736 342 sel 60;
#X obj 384 183 t b b b b;
#X msg 509 297 \; screenLine2 Encoder Test \; screenLine3 Press Aux
to begin \; screenLine4 Press low C to end \;;
#X connect 0 0 29 0;
#X connect 2 0 1 0;
#X connect 3 0 1 0;
#X connect 5 0 4 0;
#X connect 6 0 4 0;
#X connect 7 0 24 0;
#X connect 8 0 10 0;
#X connect 8 1 9 0;
#X connect 9 0 14 0;
#X connect 10 0 15 0;
#X connect 11 0 12 0;
#X connect 12 0 13 0;
#X connect 13 0 16 0;
#X connect 13 0 17 0;
#X connect 13 1 11 1;
#X connect 14 0 11 0;
#X connect 14 1 12 1;
#X connect 15 0 11 0;
#X connect 15 1 12 1;
#X connect 17 0 7 0;
#X connect 17 1 6 0;
#X connect 18 0 19 0;
#X connect 19 0 8 0;
#X connect 20 0 21 0;
#X connect 21 0 28 0;
#X connect 22 0 11 1;
#X connect 23 0 7 0;
#X connect 24 0 5 0;
#X connect 24 1 4 0;
#X connect 25 0 26 0;
#X connect 26 0 27 0;
#X connect 27 0 2 0;
#X connect 28 0 23 0;
#X connect 28 1 6 0;
#X connect 28 2 22 0;
#X connect 28 3 3 0;
